<svg width="64" height="64" fill="none" xmlns="http://www.w3.org/2000/svg"><g clip-path="url(#clip0_1110_448)"><g clip-path="url(#clip1_1110_448)" fill-rule="evenodd" clip-rule="evenodd"><path d="M32.053 0h31.554v31.553c0 16.968-13.544 30.959-30.363 31.554 10.419-3.126 17.86-12.8 17.86-24.112V13.544H25.803c-12.65 0-23.218 9.377-25.153 21.582C.5 34.084.5 32.893.5 31.554.5 14.288 14.788 0 32.053 0z" fill="url(#paint0_linear_1110_448)"/><path d="M19.105 26.047h18.604V44.65c0 10.27-8.335 18.605-18.604 18.605H.5V44.65c0-10.27 8.335-18.605 18.605-18.605z" fill="url(#paint1_linear_1110_448)"/></g></g><defs><linearGradient id="paint0_linear_1110_448" x1=".5" y1="31.612" x2="63.754" y2="31.612" gradientUnits="userSpaceOnUse"><stop stop-color="#2E5E6D"/><stop offset="1" stop-color="#214250"/></linearGradient><linearGradient id="paint1_linear_1110_448" x1=".5" y1="44.653" x2="37.643" y2="44.653" gradientUnits="userSpaceOnUse"><stop stop-color="#518311"/><stop offset="1" stop-color="#79BF1B"/></linearGradient><clipPath id="clip0_1110_448"><path fill="#fff" d="M0 0h64v64H0z"/></clipPath><clipPath id="clip1_1110_448"><path fill="#fff" d="M0 0h64v64H0z"/></clipPath></defs></svg>