<svg width="512" height="512" viewBox="0 0 512 512" fill="none" xmlns="http://www.w3.org/2000/svg">
<g clip-path="url(#clip0_2_98)">
<path fill-rule="evenodd" clip-rule="evenodd" d="M256.428 0H508.856V251.237V252.428C508.856 388.167 400.502 500.093 265.953 504.856C349.302 479.851 408.837 402.456 408.837 311.963V310.772V108.353H206.419C105.209 108.353 20.6698 183.367 5.1907 281.005C4 272.67 4 263.144 4 252.428C4 114.307 118.307 0 256.428 0Z" fill="url(#paint0_linear_2_98)"/>
<path fill-rule="evenodd" clip-rule="evenodd" d="M152.837 208.372H301.674V357.209C301.674 439.367 234.995 506.047 152.837 506.047H4V357.209C4 275.051 70.6791 208.372 152.837 208.372Z" fill="url(#paint1_linear_2_98)"/>
</g>
<defs>
<linearGradient id="paint0_linear_2_98" x1="4" y1="252.897" x2="510.035" y2="252.897" gradientUnits="userSpaceOnUse">
<stop stop-color="#2E5E6D"/>
<stop offset="1" stop-color="#214250"/>
</linearGradient>
<linearGradient id="paint1_linear_2_98" x1="4" y1="357.224" x2="301.143" y2="357.224" gradientUnits="userSpaceOnUse">
<stop stop-color="#518311"/>
<stop offset="1" stop-color="#79BF1B"/>
</linearGradient>
<clipPath id="clip0_2_98">
<rect width="512" height="512" fill="white"/>
</clipPath>
</defs>
</svg>
