<svg width="152" height="152" viewBox="0 0 152 152" fill="none" xmlns="http://www.w3.org/2000/svg">
<g clip-path="url(#clip0_2_116)">
<path fill-rule="evenodd" clip-rule="evenodd" d="M76.127 0H151.067V74.586V74.9395C151.067 115.237 118.899 148.465 78.9549 149.879C103.699 142.456 121.374 119.479 121.374 92.614V92.2605V32.1674H61.2805C31.234 32.1674 6.13634 54.4372 1.54099 83.4233C1.1875 80.9488 1.1875 78.1209 1.1875 74.9395C1.1875 33.9349 35.1224 0 76.127 0Z" fill="url(#paint0_linear_2_116)"/>
<path fill-rule="evenodd" clip-rule="evenodd" d="M45.3735 61.8605H89.5596V106.047C89.5596 130.437 69.7642 150.233 45.3735 150.233H1.1875V106.047C1.1875 81.6558 20.9828 61.8605 45.3735 61.8605Z" fill="url(#paint1_linear_2_116)"/>
</g>
<defs>
<linearGradient id="paint0_linear_2_116" x1="1.1875" y1="75.0788" x2="151.417" y2="75.0788" gradientUnits="userSpaceOnUse">
<stop stop-color="#2E5E6D"/>
<stop offset="1" stop-color="#214250"/>
</linearGradient>
<linearGradient id="paint1_linear_2_116" x1="1.1875" y1="106.051" x2="89.4019" y2="106.051" gradientUnits="userSpaceOnUse">
<stop stop-color="#518311"/>
<stop offset="1" stop-color="#79BF1B"/>
</linearGradient>
<clipPath id="clip0_2_116">
<rect width="152" height="152" fill="white"/>
</clipPath>
</defs>
</svg>
