<svg width="96" height="96" viewBox="0 0 96 96" fill="none" xmlns="http://www.w3.org/2000/svg">
<g clip-path="url(#clip0_2_136)">
<path fill-rule="evenodd" clip-rule="evenodd" d="M48.0802 0H95.4105V47.107V47.3302C95.4105 72.7814 75.0942 93.7674 49.8663 94.6605C65.4942 89.9721 76.657 75.4605 76.657 58.493V58.2698V20.3163H38.7035C19.7267 20.3163 3.87558 34.3814 0.973256 52.6884C0.75 51.1256 0.75 49.3395 0.75 47.3302C0.75 21.4326 22.1826 0 48.0802 0Z" fill="url(#paint0_linear_2_136)"/>
<path fill-rule="evenodd" clip-rule="evenodd" d="M28.657 39.0698H56.564V66.9768C56.564 82.3815 44.0616 94.8838 28.657 94.8838H0.75V66.9768C0.75 51.5722 13.2523 39.0698 28.657 39.0698Z" fill="url(#paint1_linear_2_136)"/>
</g>
<defs>
<linearGradient id="paint0_linear_2_136" x1="0.75" y1="47.4182" x2="95.6315" y2="47.4182" gradientUnits="userSpaceOnUse">
<stop stop-color="#2E5E6D"/>
<stop offset="1" stop-color="#214250"/>
</linearGradient>
<linearGradient id="paint1_linear_2_136" x1="0.75" y1="66.9795" x2="56.4644" y2="66.9795" gradientUnits="userSpaceOnUse">
<stop stop-color="#518311"/>
<stop offset="1" stop-color="#79BF1B"/>
</linearGradient>
<clipPath id="clip0_2_136">
<rect width="96" height="96" fill="white"/>
</clipPath>
</defs>
</svg>
