<svg width="72" height="72" viewBox="0 0 72 72" fill="none" xmlns="http://www.w3.org/2000/svg">
<g clip-path="url(#clip0_2_126)">
<g clip-path="url(#clip1_2_126)">
<path fill-rule="evenodd" clip-rule="evenodd" d="M36.0602 0H71.5579V35.3302V35.4977C71.5579 54.586 56.3206 70.3256 37.3997 70.9954C49.1206 67.4791 57.4927 56.5954 57.4927 43.8698V43.7023V15.2372H29.0276C14.7951 15.2372 2.90669 25.786 0.729942 39.5163C0.5625 38.3442 0.5625 37.0047 0.5625 35.4977C0.5625 16.0744 16.6369 0 36.0602 0Z" fill="url(#paint0_linear_2_126)"/>
<path fill-rule="evenodd" clip-rule="evenodd" d="M21.4927 29.3023H42.423V50.2325C42.423 61.786 33.0462 71.1628 21.4927 71.1628H0.5625V50.2325C0.5625 38.6791 9.93924 29.3023 21.4927 29.3023Z" fill="url(#paint1_linear_2_126)"/>
</g>
</g>
<defs>
<linearGradient id="paint0_linear_2_126" x1="0.5625" y1="35.5636" x2="71.7236" y2="35.5636" gradientUnits="userSpaceOnUse">
<stop stop-color="#2E5E6D"/>
<stop offset="1" stop-color="#214250"/>
</linearGradient>
<linearGradient id="paint1_linear_2_126" x1="0.5625" y1="50.2345" x2="42.3483" y2="50.2345" gradientUnits="userSpaceOnUse">
<stop stop-color="#518311"/>
<stop offset="1" stop-color="#79BF1B"/>
</linearGradient>
<clipPath id="clip0_2_126">
<rect width="72" height="72" fill="white"/>
</clipPath>
<clipPath id="clip1_2_126">
<rect width="72" height="72" fill="white"/>
</clipPath>
</defs>
</svg>
