<svg width="18" height="18" viewBox="0 0 18 18" fill="none" xmlns="http://www.w3.org/2000/svg">
<path d="M3.16955 17.3586H14.8336C16.0564 17.3586 17.0501 16.3649 17.0501 15.1422V4.09721C17.0501 2.87446 16.0564 1.88078 14.8336 1.88078H13.9545V1.26168C13.9545 0.921163 13.6759 0.642578 13.3353 0.642578C12.9948 0.642578 12.7162 0.921163 12.7162 1.26168V1.88078H5.28693V1.26168C5.28693 0.921163 5.0083 0.642578 4.66778 0.642578C4.32727 0.642578 4.04868 0.921163 4.04868 1.26168V1.88078H3.16955C1.94681 1.88078 0.953125 2.87446 0.953125 4.09721V15.1422C0.953125 16.3649 1.94681 17.3586 3.16955 17.3586ZM2.19138 4.09721C2.19138 3.5586 2.63094 3.11903 3.16955 3.11903H4.04868V3.73813C4.04868 4.07865 4.32727 4.35723 4.66778 4.35723C5.0083 4.35723 5.28688 4.07865 5.28688 3.73813V3.11903H12.7162V3.73813C12.7162 4.07865 12.9948 4.35723 13.3353 4.35723C13.6759 4.35723 13.9544 4.07865 13.9544 3.73813V3.11903H14.8336C15.3722 3.11903 15.8117 3.5586 15.8117 4.09721V15.1422C15.8117 15.6808 15.3722 16.1204 14.8336 16.1204H3.16955C2.63094 16.1204 2.19138 15.6808 2.19138 15.1422V4.09721Z" fill="#1A1A1A" fill-opacity="0.64"/>
<path d="M5.44184 7.7626C5.86924 7.7626 6.21572 7.41612 6.21572 6.98872C6.21572 6.56132 5.86924 6.21484 5.44184 6.21484C5.01444 6.21484 4.66797 6.56132 4.66797 6.98872C4.66797 7.41612 5.01444 7.7626 5.44184 7.7626Z" fill="#1A1A1A" fill-opacity="0.64"/>
<path d="M8.84809 7.7626C9.27549 7.7626 9.62197 7.41612 9.62197 6.98872C9.62197 6.56132 9.27549 6.21484 8.84809 6.21484C8.42069 6.21484 8.07422 6.56132 8.07422 6.98872C8.07422 7.41612 8.42069 7.7626 8.84809 7.7626Z" fill="#1A1A1A" fill-opacity="0.64"/>
<path d="M12.2543 7.7626C12.6817 7.7626 13.0282 7.41612 13.0282 6.98872C13.0282 6.56132 12.6817 6.21484 12.2543 6.21484C11.8269 6.21484 11.4805 6.56132 11.4805 6.98872C11.4805 7.41612 11.8269 7.7626 12.2543 7.7626Z" fill="#1A1A1A" fill-opacity="0.64"/>
<path d="M5.44184 10.8583C5.86924 10.8583 6.21572 10.5118 6.21572 10.0844C6.21572 9.65702 5.86924 9.31055 5.44184 9.31055C5.01444 9.31055 4.66797 9.65702 4.66797 10.0844C4.66797 10.5118 5.01444 10.8583 5.44184 10.8583Z" fill="#1A1A1A" fill-opacity="0.64"/>
<path d="M8.84809 10.8583C9.27549 10.8583 9.62197 10.5118 9.62197 10.0844C9.62197 9.65702 9.27549 9.31055 8.84809 9.31055C8.42069 9.31055 8.07422 9.65702 8.07422 10.0844C8.07422 10.5118 8.42069 10.8583 8.84809 10.8583Z" fill="#1A1A1A" fill-opacity="0.64"/>
<path d="M12.2543 10.8583C12.6817 10.8583 13.0282 10.5118 13.0282 10.0844C13.0282 9.65702 12.6817 9.31055 12.2543 9.31055C11.8269 9.31055 11.4805 9.65702 11.4805 10.0844C11.4805 10.5118 11.8269 10.8583 12.2543 10.8583Z" fill="#1A1A1A" fill-opacity="0.64"/>
<path d="M5.44184 13.954C5.86924 13.954 6.21572 13.6075 6.21572 13.1801C6.21572 12.7527 5.86924 12.4062 5.44184 12.4062C5.01444 12.4062 4.66797 12.7527 4.66797 13.1801C4.66797 13.6075 5.01444 13.954 5.44184 13.954Z" fill="#1A1A1A" fill-opacity="0.64"/>
<path d="M8.84809 13.954C9.27549 13.954 9.62197 13.6075 9.62197 13.1801C9.62197 12.7527 9.27549 12.4062 8.84809 12.4062C8.42069 12.4062 8.07422 12.7527 8.07422 13.1801C8.07422 13.6075 8.42069 13.954 8.84809 13.954Z" fill="#1A1A1A" fill-opacity="0.64"/>
<path d="M12.2543 13.954C12.6817 13.954 13.0282 13.6075 13.0282 13.1801C13.0282 12.7527 12.6817 12.4062 12.2543 12.4062C11.8269 12.4062 11.4805 12.7527 11.4805 13.1801C11.4805 13.6075 11.8269 13.954 12.2543 13.954Z" fill="#1A1A1A" fill-opacity="0.64"/>
</svg>
