<svg width="20" height="20" viewBox="0 0 20 20" fill="none" xmlns="http://www.w3.org/2000/svg">
<path d="M19.9231 8.84615C19.8923 8.55385 19.8462 8.27692 19.7846 7.98462V7.96923C19.4 6.07692 18.4615 4.32308 17.0615 2.92308C15.6615 1.52308 13.9231 0.6 12.0308 0.2C12.0154 0.2 12 0.2 12 0.184615C11.7385 0.153846 11.4462 0.107692 11.1692 0.076923C11.1231 0.076923 11.0615 0.0615384 11.0154 0.0461538C10.6769 0.0153846 10.3385 0 10 0C9.66154 0 9.32308 0.0153846 8.98462 0.0461538C8.92308 0.0461538 8.87692 0.0615384 8.83077 0.076923C8.53846 0.107692 8.26154 0.153846 7.98462 0.2C7.96923 0.2 7.95385 0.2 7.93846 0.215385C6.06154 0.6 4.32308 1.53846 2.92308 2.92308C1.52308 4.32308 0.6 6.06154 0.215385 7.95385V7.98462C0.138462 8.27692 0.107692 8.55385 0.076923 8.84615C0.076923 8.89231 0.0615384 8.93846 0.0615384 8.98462C0.0153846 9.32308 0 9.66154 0 10C0 10.3385 0.0153846 10.6769 0.0461538 11.0154C0.0461538 11.0615 0.0615384 11.1077 0.0615384 11.1538C0.0923076 11.4462 0.138462 11.7231 0.2 12.0154V12.0462C0.584615 13.9385 1.52308 15.6769 2.92308 17.0769C4.32308 18.4769 6.06154 19.4 7.93846 19.8C7.95385 19.8 7.96923 19.8 7.98462 19.8154C8.26154 19.8769 8.53846 19.9077 8.81538 19.9385C8.86154 19.9385 8.92308 19.9538 8.96923 19.9692C9.32308 19.9846 9.66154 20 10 20C10.3385 20 10.6769 19.9846 11.0154 19.9538C11.0615 19.9538 11.1231 19.9385 11.1692 19.9231C11.4462 19.8923 11.7385 19.8462 12.0154 19.8C12.0308 19.8 12.0462 19.8 12.0462 19.7846C13.9385 19.4 15.6769 18.4615 17.0769 17.0615C18.4769 15.6615 19.4154 13.9231 19.8 12.0154V12C19.8615 11.7231 19.8923 11.4308 19.9385 11.1385C19.9385 11.0923 19.9538 11.0462 19.9538 11C19.9846 10.6769 20 10.3385 20 10C20 9.66154 19.9846 9.32308 19.9538 8.98462C19.9385 8.93846 19.9385 8.89231 19.9231 8.84615ZM17.6923 10.7692H18.3846C18.3538 11.0462 18.3538 11.3231 18.3077 11.6C18.3077 11.6308 18.2923 11.6615 18.2923 11.6923C18.2 12.1846 18.0462 12.6615 17.8615 13.1231C17.8462 13.1846 17.8308 13.2308 17.8 13.2923C17.6154 13.7385 17.3692 14.1692 17.1077 14.5846C17.0769 14.6462 17.0462 14.6923 17 14.7538C16.8462 14.9846 16.6462 15.1846 16.4615 15.4L15.9692 14.9077C15.6615 14.6 15.1846 14.6 14.8769 14.9077C14.5692 15.2154 14.5692 15.6923 14.8769 16L15.3692 16.4923C15.1538 16.6769 14.9538 16.8769 14.7231 17.0308C14.6769 17.0615 14.6154 17.0923 14.5692 17.1231C14.1538 17.3846 13.7231 17.6308 13.2769 17.8154C13.2308 17.8308 13.1692 17.8462 13.1077 17.8769C12.6462 18.0615 12.1692 18.2154 11.6769 18.3077C11.6462 18.3077 11.6154 18.3231 11.5846 18.3231C11.3077 18.3692 11.0308 18.3846 10.7538 18.4V17.6923C10.7538 17.2615 10.4154 16.9231 9.98462 16.9231C9.55385 16.9231 9.23077 17.2615 9.23077 17.6923V18.3846C8.95385 18.3538 8.67692 18.3538 8.4 18.3077C8.36923 18.3077 8.33846 18.2923 8.30769 18.2923C7.81538 18.2 7.33846 18.0462 6.87692 17.8615C6.83077 17.8462 6.76923 17.8308 6.70769 17.8C6.26154 17.6154 5.83077 17.3692 5.41538 17.1077C5.36923 17.0769 5.30769 17.0462 5.26154 17.0154C5.03077 16.8615 4.83077 16.6615 4.61538 16.4769L5.10769 15.9846C5.41538 15.6769 5.41538 15.2 5.10769 14.8923C4.8 14.5846 4.32308 14.5846 4.01538 14.8923L3.52308 15.3846C3.33846 15.1692 3.15385 14.9692 2.98462 14.7385C2.95385 14.6923 2.92308 14.6308 2.87692 14.5692C2.61538 14.1538 2.36923 13.7231 2.18462 13.2769C2.16923 13.2154 2.13846 13.1692 2.12308 13.1077C1.95385 12.6615 1.8 12.1846 1.70769 11.6923C1.70769 11.6615 1.69231 11.6308 1.69231 11.6C1.64615 11.3231 1.64615 11.0462 1.61538 10.7692H2.30769C2.73846 10.7692 3.07692 10.4308 3.07692 10C3.07692 9.56923 2.73846 9.23077 2.30769 9.23077H1.61538C1.64615 8.95385 1.64615 8.67692 1.69231 8.4C1.69231 8.36923 1.70769 8.33846 1.70769 8.30769C1.8 7.81538 1.95385 7.33846 2.13846 6.87692C2.16923 6.83077 2.18462 6.76923 2.2 6.70769C2.38462 6.26154 2.63077 5.83077 2.89231 5.41538C2.92308 5.36923 2.95385 5.30769 3 5.26154C3.15385 5.03077 3.35385 4.83077 3.53846 4.61538L4.03077 5.10769C4.18462 5.26154 4.38461 5.33846 4.56923 5.33846C4.75385 5.33846 4.96923 5.26154 5.10769 5.10769C5.41538 4.8 5.41538 4.32308 5.10769 4.01538L4.61538 3.52308C4.83077 3.33846 5.03077 3.13846 5.26154 2.98462C5.30769 2.95385 5.36923 2.92308 5.41538 2.89231C5.83077 2.63077 6.26154 2.38462 6.70769 2.2C6.76923 2.18462 6.83077 2.16923 6.87692 2.13846C7.33846 1.95385 7.81538 1.8 8.30769 1.70769C8.33846 1.70769 8.36923 1.69231 8.4 1.69231C8.67692 1.64615 8.95385 1.64615 9.23077 1.61538V2.30769C9.23077 2.73846 9.56923 3.07692 10 3.07692C10.4308 3.07692 10.7692 2.73846 10.7692 2.30769V1.61538C11.0462 1.64615 11.3231 1.64615 11.6 1.69231C11.6308 1.69231 11.6615 1.70769 11.6923 1.70769C12.1846 1.8 12.6615 1.95385 13.1231 2.13846C13.1692 2.15385 13.2308 2.16923 13.2923 2.2C13.7385 2.38462 14.1692 2.63077 14.5846 2.89231C14.6308 2.92308 14.6923 2.95385 14.7385 2.98462C14.9692 3.13846 15.1692 3.33846 15.3846 3.52308L14.8923 4.01538C14.5846 4.32308 14.5846 4.8 14.8923 5.10769C15.0462 5.26154 15.2462 5.33846 15.4308 5.33846C15.6154 5.33846 15.8308 5.26154 15.9692 5.10769L16.4615 4.61538C16.6462 4.83077 16.8308 5.03077 17 5.26154C17.0308 5.30769 17.0615 5.36923 17.1077 5.43077C17.3692 5.84615 17.6154 6.27692 17.8 6.72308C17.8154 6.78462 17.8462 6.83077 17.8615 6.89231C18.0462 7.35385 18.2 7.83077 18.2923 8.32308C18.2923 8.35385 18.3077 8.38461 18.3077 8.41538C18.3538 8.69231 18.3692 8.96923 18.3846 9.24615H17.6923C17.2615 9.24615 16.9231 9.58462 16.9231 10.0154C16.9231 10.4462 17.2615 10.7692 17.6923 10.7692Z" fill="#0B766B"/>
<path d="M13.0766 9.2316H10.7689V5.38544C10.7689 4.95467 10.4305 4.61621 9.9997 4.61621C9.56893 4.61621 9.23047 4.95467 9.23047 5.38544V10.0008C9.23047 10.4316 9.56893 10.7701 9.9997 10.7701H13.0766C13.5074 10.7701 13.8459 10.4316 13.8459 10.0008C13.8459 9.57006 13.5074 9.2316 13.0766 9.2316Z" fill="#0B766B"/>
</svg>
