<svg width="32" height="33" viewBox="0 0 32 33" fill="none" xmlns="http://www.w3.org/2000/svg">
<rect x="1.25" y="1.75" width="29.5" height="29.5" rx="14.75" fill="#FE7C1D"/>
<rect x="1.25" y="1.75" width="29.5" height="29.5" rx="14.75" stroke="white" stroke-width="2.5"/>
<g clip-path="url(#clip0_82_1589)">
<path d="M13.4401 24.4999C13.4043 24.4999 13.3682 24.4927 13.3336 24.4776C13.2181 24.4269 13.1541 24.302 13.1804 24.1788L14.5563 17.7278H10.6875C10.5881 17.7278 10.4973 17.6726 10.4516 17.5841C10.4059 17.4956 10.4134 17.3897 10.4707 17.3084L17.3393 7.61201C17.412 7.50894 17.547 7.47202 17.6625 7.52223C17.7781 7.57296 17.8421 7.6978 17.8158 7.82105L16.4399 14.272H20.3089C20.4083 14.272 20.4991 14.3273 20.5448 14.4157C20.5905 14.5042 20.5831 14.6102 20.5257 14.6914L13.6572 24.3878C13.6059 24.4601 13.5244 24.4999 13.4401 24.4999Z" fill="white"/>
</g>
<defs>
<clipPath id="clip0_82_1589">
<rect width="17" height="17" fill="white" transform="translate(7 7.5)"/>
</clipPath>
</defs>
</svg>
