<svg width="18" height="24" viewBox="0 0 18 24" fill="none" xmlns="http://www.w3.org/2000/svg">
<path fill-rule="evenodd" clip-rule="evenodd" d="M8.99917 1.59999C10.9087 1.59999 12.7401 2.35856 14.0903 3.70881C15.4406 5.05906 16.1991 6.8904 16.1991 8.79995C16.1991 10.0295 15.4991 11.7135 14.5639 13.4839C12.9244 16.4253 11.0641 19.2382 8.99917 21.8983C6.93424 19.2382 5.07398 16.4253 3.4344 13.4839C2.49921 11.7135 1.79921 10.0295 1.79921 8.79995C1.79921 6.8904 2.55777 5.05906 3.90803 3.70881C5.25828 2.35856 7.08962 1.59999 8.99917 1.59999ZM8.99917 0C6.6656 0.00105999 4.42792 0.928535 2.77783 2.57862C1.12775 4.2287 0.200279 6.46638 0.199219 8.79995C0.199219 10.2199 0.939215 12.1871 2.02001 14.2311C3.88552 17.5499 6.01053 20.7161 8.37517 23.6999C8.45013 23.7933 8.54512 23.8687 8.65312 23.9205C8.76112 23.9723 8.87938 23.9992 8.99917 23.9992C9.11896 23.9992 9.23721 23.9723 9.34521 23.9205C9.45322 23.8687 9.5482 23.7933 9.62317 23.6999C11.9878 20.7161 14.1128 17.5499 15.9783 14.2311C17.0591 12.1871 17.7991 10.2199 17.7991 8.79995C17.7981 6.46638 16.8706 4.2287 15.2205 2.57862C13.5704 0.928535 11.3327 0.00105999 8.99917 0Z" fill="#0B766B"/>
<path fill-rule="evenodd" clip-rule="evenodd" d="M8.99763 6.933C9.36677 6.933 9.72761 7.04246 10.0345 7.24754C10.3415 7.45262 10.5807 7.74411 10.722 8.08515C10.8632 8.42619 10.9002 8.80146 10.8282 9.1635C10.7561 9.52555 10.5784 9.85811 10.3174 10.1191C10.0563 10.3801 9.72379 10.5579 9.36175 10.6299C8.9997 10.7019 8.62443 10.665 8.2834 10.5237C7.94236 10.3824 7.65087 10.1432 7.44579 9.8363C7.2407 9.52937 7.13124 9.16852 7.13124 8.79939C7.13145 8.30446 7.32816 7.82986 7.67813 7.47989C8.0281 7.12992 8.5027 6.93321 8.99763 6.933ZM8.99763 5.33301C8.31205 5.33301 7.64186 5.53631 7.07181 5.9172C6.50177 6.29809 6.05748 6.83946 5.79511 7.47286C5.53275 8.10626 5.46411 8.80323 5.59786 9.47565C5.73161 10.1481 6.06175 10.7657 6.54653 11.2505C7.03131 11.7353 7.64896 12.0654 8.32137 12.1992C8.99379 12.3329 9.69076 12.2643 10.3242 12.0019C10.9576 11.7395 11.4989 11.2952 11.8798 10.7252C12.2607 10.1552 12.464 9.48497 12.464 8.79939C12.4638 7.88011 12.0985 6.99855 11.4485 6.34852C10.7985 5.6985 9.91691 5.33322 8.99763 5.33301Z" fill="#0B766B"/>
</svg>
