<svg width="22" height="14" viewBox="0 0 22 14" fill="none" xmlns="http://www.w3.org/2000/svg">
<path d="M19.4174 0H2.58266C1.43422 0 0.5 0.951344 0.5 2.12092V11.8791C0.5 13.0486 1.43422 14 2.58266 14H19.4174C20.5658 14 21.5 13.0486 21.5 11.8791V2.12092C21.5 0.951344 20.5659 0 19.4174 0ZM20.1116 2.12092V11.8791C20.1116 11.9906 20.0808 12.0925 20.0353 12.1863L15.1274 7.18775L20.1102 2.1133C20.1102 2.11611 20.1116 2.11815 20.1116 2.12092ZM1.88844 11.879V2.12092C1.88844 2.11815 1.88984 2.11616 1.88984 2.11334L6.87273 7.18779L1.96439 12.1863C1.91929 12.0924 1.88844 11.9906 1.88844 11.879ZM11.2143 9.17343C11.0997 9.29004 10.9003 9.29004 10.7858 9.17343L3.1667 1.41395H18.8337L11.2143 9.17343ZM7.8544 8.18754L9.80412 10.1731C10.1238 10.4986 10.5485 10.6778 11 10.6778C11.4515 10.6778 11.8763 10.4986 12.196 10.1731L14.1458 8.18754L18.4645 12.5861H3.53522L7.8544 8.18754Z" fill="#0B766B"/>
</svg>
