<svg width="18" height="18" viewBox="0 0 18 18" fill="none" xmlns="http://www.w3.org/2000/svg">
<path fill-rule="evenodd" clip-rule="evenodd" d="M5.36364 3.18182V3.90909H3.18182C1.97684 3.90909 1 4.88593 1 6.09091V14.8182C1 16.0232 1.97684 17 3.18182 17H14.8182C16.0232 17 17 16.0232 17 14.8182V6.09091C17 4.88593 16.0232 3.90909 14.8182 3.90909H12.6364V3.18182C12.6364 1.97684 11.6596 1 10.4545 1H7.54545C6.34047 1 5.36364 1.97684 5.36364 3.18182ZM7.54545 1.72727C6.74213 1.72727 6.09091 2.37849 6.09091 3.18182V3.90909H11.9091V3.18182C11.9091 2.37849 11.2579 1.72727 10.4545 1.72727H7.54545ZM1.72727 6.09091C1.72727 5.28759 2.37849 4.63636 3.18182 4.63636H14.8182C15.6215 4.63636 16.2727 5.28759 16.2727 6.09091V14.8182C16.2727 15.6215 15.6215 16.2727 14.8182 16.2727H3.18182C2.37849 16.2727 1.72727 15.6215 1.72727 14.8182V6.09091ZM6.45455 9.72727H8.27273V7.90909C8.27273 7.70829 8.43556 7.54545 8.63636 7.54545H9.36364C9.56444 7.54545 9.72727 7.70829 9.72727 7.90909V9.72727H11.5455C11.7463 9.72727 11.9091 9.89011 11.9091 10.0909V10.8182C11.9091 11.019 11.7463 11.1818 11.5455 11.1818H9.72727V13C9.72727 13.2008 9.56444 13.3636 9.36364 13.3636H8.63636C8.43556 13.3636 8.27273 13.2008 8.27273 13V11.1818H6.45455C6.25372 11.1818 6.09091 11.019 6.09091 10.8182V10.0909C6.09091 9.89011 6.25372 9.72727 6.45455 9.72727ZM10.4545 7.90909V9H11.5455C12.1479 9 12.6364 9.48844 12.6364 10.0909V10.8182C12.6364 11.4207 12.1479 11.9091 11.5455 11.9091H10.4545V13C10.4545 13.6025 9.96611 14.0909 9.36364 14.0909H8.63636C8.03389 14.0909 7.54545 13.6025 7.54545 13V11.9091H6.45455C5.85205 11.9091 5.36364 11.4207 5.36364 10.8182V10.0909C5.36364 9.48844 5.85205 9 6.45455 9H7.54545V7.90909C7.54545 7.3066 8.03389 6.81818 8.63636 6.81818H9.36364C9.96611 6.81818 10.4545 7.3066 10.4545 7.90909Z" fill="#1A1A1A" fill-opacity="0.64"/>
<path d="M8.27273 9.82727H8.37273V9.72727V7.90909C8.37273 7.76352 8.49079 7.64545 8.63636 7.64545H9.36364C9.50921 7.64545 9.62727 7.76352 9.62727 7.90909V9.72727V9.82727H9.72727H11.5455C11.691 9.82727 11.8091 9.94534 11.8091 10.0909V10.8182C11.8091 10.9638 11.691 11.0818 11.5455 11.0818H9.72727H9.62727V11.1818V13C9.62727 13.1456 9.50921 13.2636 9.36364 13.2636H8.63636C8.49079 13.2636 8.37273 13.1456 8.37273 13V11.1818V11.0818H8.27273H6.45455C6.30895 11.0818 6.19091 10.9638 6.19091 10.8182V10.0909C6.19091 9.94533 6.30895 9.82727 6.45455 9.82727H8.27273ZM5.26364 3.18182V3.80909H3.18182C1.92161 3.80909 0.9 4.8307 0.9 6.09091V14.8182C0.9 16.0784 1.92161 17.1 3.18182 17.1H14.8182C16.0784 17.1 17.1 16.0784 17.1 14.8182V6.09091C17.1 4.8307 16.0784 3.80909 14.8182 3.80909H12.7364V3.18182C12.7364 1.92161 11.7148 0.9 10.4545 0.9H7.54545C6.28524 0.9 5.26364 1.92161 5.26364 3.18182ZM6.19091 3.18182C6.19091 2.43372 6.79736 1.82727 7.54545 1.82727H10.4545C11.2027 1.82727 11.8091 2.43372 11.8091 3.18182V3.80909H6.19091V3.18182ZM1.82727 6.09091C1.82727 5.34281 2.43372 4.73636 3.18182 4.73636H14.8182C15.5663 4.73636 16.1727 5.34281 16.1727 6.09091V14.8182C16.1727 15.5663 15.5663 16.1727 14.8182 16.1727H3.18182C2.43372 16.1727 1.82727 15.5663 1.82727 14.8182V6.09091ZM7.44546 8.9H6.45455C5.79682 8.9 5.26364 9.43321 5.26364 10.0909V10.8182C5.26364 11.4759 5.79682 12.0091 6.45455 12.0091H7.44546V13C7.44546 13.6577 7.97866 14.1909 8.63636 14.1909H9.36364C10.0213 14.1909 10.5545 13.6577 10.5545 13V12.0091H11.5455C12.2032 12.0091 12.7364 11.4759 12.7364 10.8182V10.0909C12.7364 9.43321 12.2032 8.9 11.5455 8.9H10.5545V7.90909C10.5545 7.25137 10.0213 6.71818 9.36364 6.71818H8.63636C7.97866 6.71818 7.44546 7.25137 7.44546 7.90909V8.9Z" stroke="#1A1A1A" stroke-opacity="0.64" stroke-width="0.2"/>
</svg>
