<svg width="16" height="24" viewBox="0 0 16 24" fill="none" xmlns="http://www.w3.org/2000/svg">
<path d="M14.8354 1.17007C14.4639 0.797014 14.0219 0.501477 13.5353 0.300622C13.0486 0.0997668 12.5268 -0.00240352 12.0003 4.29165e-05H4.00511C3.47951 -0.000943209 2.95887 0.10173 2.47299 0.302187C1.98711 0.502644 1.54553 0.79695 1.17352 1.16826C0.801516 1.53957 0.506383 1.9806 0.305016 2.4661C0.103648 2.9516 -9.25066e-07 3.47205 0 3.99765V20.0031C-9.25066e-07 20.5287 0.103648 21.0491 0.305016 21.5346C0.506383 22.0201 0.801516 22.4612 1.17352 22.8325C1.54553 23.2038 1.98711 23.4981 2.47299 23.6986C2.95887 23.899 3.47951 24.0017 4.00511 24.0007H12.0003C13.0606 24.0007 14.0774 23.5795 14.8271 22.8298C15.5768 22.0801 15.9979 21.0633 15.9979 20.0031V3.99765C16.0008 3.47288 15.8995 2.95275 15.7 2.46739C15.5004 1.98203 15.2065 1.54108 14.8354 1.17007ZM14.4079 19.9956C14.4079 20.6321 14.155 21.2426 13.7049 21.6927C13.2548 22.1428 12.6444 22.3957 12.0078 22.3957H4.00511C3.68993 22.3957 3.37783 22.3336 3.08664 22.213C2.79545 22.0923 2.53087 21.9156 2.30801 21.6927C1.85791 21.2426 1.60504 20.6321 1.60504 19.9956V3.99765C1.60504 3.36111 1.85791 2.75065 2.30801 2.30055C2.75811 1.85045 3.36857 1.59759 4.00511 1.59759H4.62013V2.40011C4.62013 2.61295 4.70468 2.81708 4.85518 2.96758C5.00568 3.11808 5.20981 3.20263 5.42265 3.20263H10.5903C10.8018 3.20065 11.004 3.11523 11.1529 2.96494C11.3018 2.81465 11.3853 2.61166 11.3853 2.40011V1.59759H12.0003C12.6369 1.59759 13.2473 1.85045 13.6974 2.30055C14.1475 2.75065 14.4004 3.36111 14.4004 3.99765L14.4079 19.9956Z" fill="#0B766B"/>
<path d="M6.40234 19.2012H9.60493V20.7987H6.40234V19.2012Z" fill="#0B766B"/>
</svg>
