<svg width="16" height="18" viewBox="0 0 16 18" fill="none" xmlns="http://www.w3.org/2000/svg">
<path d="M15.5061 4.65552C15.4969 4.17186 15.4881 3.71496 15.4881 3.27294C15.4881 2.92665 15.2074 2.6459 14.861 2.6459C12.1794 2.6459 10.1377 1.87523 8.43581 0.220515C8.19235 -0.0162551 7.80493 -0.0161715 7.56155 0.220515C5.85985 1.87523 3.81847 2.6459 1.137 2.6459C0.790705 2.6459 0.509959 2.92665 0.509959 3.27294C0.509959 3.71504 0.501264 4.17211 0.491984 4.65585C0.406038 9.15682 0.288322 15.3211 7.79331 17.9225C7.85986 17.9456 7.92925 17.9571 7.99864 17.9571C8.06803 17.9571 8.13751 17.9456 8.20398 17.9225C15.7095 15.321 15.592 9.15657 15.5061 4.65552ZM7.99872 16.6646C1.56221 14.3265 1.65953 9.20439 1.74589 4.67976C1.75108 4.40821 1.75609 4.14503 1.75961 3.88702C4.2711 3.78101 6.27947 3.01995 7.99872 1.52225C9.71815 3.01995 11.7268 3.78109 14.2385 3.88702C14.242 4.14494 14.247 4.40796 14.2522 4.67935C14.3385 9.20414 14.4357 14.3264 7.99872 16.6646Z" fill="#1A1A1A" fill-opacity="0.64"/>
<path d="M10.1578 6.82229L7.13136 9.84855L5.83991 8.5571C5.59503 8.3123 5.19799 8.3123 4.95319 8.5571C4.70831 8.80206 4.70831 9.19902 4.95319 9.4439L6.688 11.1787C6.8104 11.3011 6.97092 11.3623 7.13136 11.3623C7.2918 11.3623 7.45232 11.3011 7.57471 11.1787L11.0444 7.70909C11.2894 7.46421 11.2894 7.06717 11.0445 6.82237C10.7997 6.57749 10.4027 6.57741 10.1578 6.82229Z" fill="#1A1A1A" fill-opacity="0.64"/>
</svg>
