<svg width="18" height="18" viewBox="0 0 18 18" fill="none" xmlns="http://www.w3.org/2000/svg">
<path d="M9 17C13.4107 17 17 13.4107 17 9C17 4.58934 13.4107 1 9 1C4.5893 1 1 4.58934 1 9C1 13.4107 4.58934 17 9 17ZM9 2.06665C12.824 2.06665 15.9334 5.17597 15.9334 9C15.9334 12.824 12.824 15.9334 9 15.9334C5.17597 15.9334 2.06665 12.824 2.06665 9C2.06665 5.17597 5.17602 2.06665 9 2.06665Z" fill="#1A1A1A" fill-opacity="0.64"/>
<path d="M11.3333 11.5494C11.432 11.6293 11.5493 11.6667 11.6667 11.6667C11.824 11.6667 11.9787 11.5974 12.0826 11.4667C12.2667 11.2374 12.2293 10.9014 12 10.7174L9.53333 8.74403V4.73336C9.53333 4.44002 9.29334 4.20004 9 4.20004C8.70666 4.20004 8.46668 4.44002 8.46668 4.73336V9.00004C8.46668 9.16272 8.54136 9.31471 8.66667 9.41603L11.3333 11.5494Z" fill="#1A1A1A" fill-opacity="0.64"/>
<path d="M12.0626 10.6394L12.0625 10.6393L9.63333 8.69596V4.73336C9.63333 4.38479 9.34857 4.10004 9 4.10004C8.65144 4.10004 8.36668 4.38479 8.36668 4.73336V9.00004C8.36668 9.19365 8.45558 9.37396 8.6038 9.49379L8.6042 9.49411L11.2704 11.6271C11.2705 11.6271 11.2706 11.6272 11.2706 11.6273C11.3881 11.7224 11.5279 11.7667 11.6667 11.7667C11.8532 11.7667 12.0371 11.6845 12.1608 11.5291C12.3793 11.2566 12.3348 10.8578 12.0626 10.6394ZM9 17.1C13.4659 17.1 17.1 13.4659 17.1 9C17.1 4.53411 13.4659 0.9 9 0.9C4.53407 0.9 0.9 4.53411 0.9 9C0.9 13.4659 4.53411 17.1 9 17.1ZM9 2.16665C12.7688 2.16665 15.8334 5.2312 15.8334 9C15.8334 12.7688 12.7688 15.8334 9 15.8334C5.2312 15.8334 2.16665 12.7688 2.16665 9C2.16665 5.2312 5.23124 2.16665 9 2.16665Z" stroke="#1A1A1A" stroke-opacity="0.64" stroke-width="0.2"/>
</svg>
