<svg width="14" height="16" viewBox="0 0 14 16" fill="none" xmlns="http://www.w3.org/2000/svg">
<path d="M11.7612 8.11082C11.7041 8.05244 11.6359 8.00602 11.5607 7.97425C11.4854 7.94248 11.4046 7.92601 11.323 7.92578C11.2413 7.92556 11.1604 7.9416 11.085 7.97295C11.0096 8.00431 10.9412 8.05037 10.8837 8.10843C10.8263 8.1665 10.781 8.23541 10.7505 8.31116C10.72 8.38691 10.7048 8.46797 10.706 8.54963C10.7071 8.63129 10.7244 8.71191 10.757 8.78679C10.7896 8.86167 10.8368 8.92931 10.8958 8.98578C11.4179 9.49953 11.8321 10.1124 12.1142 10.7884C12.3962 11.4644 12.5404 12.1899 12.5382 12.9224C12.5382 13.6751 10.3807 14.7686 6.99974 14.7686C3.61875 14.7686 1.46127 13.6745 1.46127 12.9212C1.4592 12.1937 1.60144 11.4731 1.87976 10.801C2.15807 10.1289 2.56694 9.51867 3.08269 9.00565C3.14102 8.94878 3.18748 8.88089 3.21937 8.80592C3.25126 8.73095 3.26795 8.6504 3.26847 8.56893C3.26898 8.48746 3.25332 8.4067 3.22238 8.33134C3.19144 8.25597 3.14585 8.1875 3.08824 8.12989C3.03063 8.07228 2.96216 8.02668 2.88679 7.99574C2.81142 7.96481 2.73066 7.94914 2.64919 7.94966C2.56773 7.95017 2.48717 7.96686 2.4122 7.99875C2.33723 8.03064 2.26934 8.0771 2.21247 8.13544C1.58196 8.76263 1.08213 9.50867 0.741922 10.3304C0.401713 11.1521 0.227884 12.0331 0.230498 12.9224C0.230498 14.9209 3.71789 15.9993 6.99974 15.9993C10.2816 15.9993 13.769 14.9209 13.769 12.9224C13.7717 12.0271 13.5955 11.1402 13.2507 10.314C12.9059 9.48768 12.3995 8.73864 11.7612 8.11082Z" fill="#1A1A1A" fill-opacity="0.64"/>
<path d="M6.99911 8.6154C7.85109 8.6154 8.68394 8.36276 9.39234 7.88943C10.1007 7.41609 10.6529 6.74332 10.9789 5.95619C11.3049 5.16906 11.3903 4.30292 11.224 3.46731C11.0578 2.6317 10.6476 1.86414 10.0451 1.2617C9.44267 0.659256 8.67511 0.248987 7.8395 0.0827732C7.00389 -0.0834404 6.13775 0.00186645 5.35062 0.327906C4.56349 0.653946 3.89072 1.20607 3.41738 1.91447C2.94405 2.62287 2.69141 3.45572 2.69141 4.3077C2.69273 5.44977 3.14699 6.54469 3.95456 7.35225C4.76212 8.15982 5.85704 8.61409 6.99911 8.6154ZM6.99911 1.23077C7.60767 1.23077 8.20256 1.41123 8.70856 1.74933C9.21456 2.08743 9.60893 2.56798 9.84182 3.13021C10.0747 3.69245 10.1356 4.31112 10.0169 4.90798C9.89819 5.50485 9.60514 6.0531 9.17482 6.48342C8.74451 6.91374 8.19625 7.20679 7.59939 7.32551C7.00252 7.44423 6.38385 7.3833 5.82162 7.15042C5.25938 6.91753 4.77883 6.52315 4.44073 6.01715C4.10264 5.51116 3.92218 4.91626 3.92218 4.3077C3.92314 3.49195 4.24762 2.70987 4.82445 2.13305C5.40128 1.55622 6.18335 1.23173 6.99911 1.23077Z" fill="#1A1A1A" fill-opacity="0.64"/>
</svg>
