<svg width="26" height="16" viewBox="0 0 26 16" fill="none" xmlns="http://www.w3.org/2000/svg">
<path d="M25.4116 1.09997C25.1191 2.05097 24.7247 2.87875 24.2306 3.63036L24.2512 3.59675C23.7658 4.43312 23.1861 5.39942 22.5122 6.49566C21.9343 7.36115 21.6284 7.8092 21.5944 7.83982C21.4449 8.0336 21.3409 8.27107 21.3051 8.53206L21.3041 8.5399C21.3333 8.77737 21.4395 8.9846 21.5944 9.13918L22.0278 9.63876C24.3466 12.1023 25.6507 13.8004 25.9404 14.7331C25.9783 14.8362 26 14.9549 26 15.0792C26 15.2966 25.9328 15.4971 25.8191 15.6617L25.8212 15.6584C25.6305 15.8611 25.364 15.9866 25.0693 15.9866C25.0368 15.9866 25.0032 15.9854 24.9717 15.9821H24.9761H22.1254C22.1254 15.9821 22.1221 15.9821 22.1199 15.9821C21.7548 15.9821 21.4189 15.8499 21.1556 15.6304L21.1589 15.6326C20.7753 15.3066 20.434 14.9538 20.1284 14.5707L20.1187 14.5573C19.6195 13.974 19.1768 13.4831 18.7903 13.0843C17.5031 11.8193 16.5532 11.1868 15.9407 11.1868C15.9179 11.1845 15.8919 11.1834 15.8648 11.1834C15.686 11.1834 15.5192 11.2405 15.3816 11.338L15.3848 11.3358C15.2721 11.4814 15.2039 11.6696 15.2039 11.8723C15.2039 11.9126 15.206 11.9507 15.2115 11.9899V11.9854C15.1822 12.3372 15.1649 12.746 15.1649 13.1593C15.1649 13.2926 15.167 13.4248 15.1703 13.557V13.5379V14.8362C15.1811 14.8888 15.1876 14.9493 15.1876 15.0109C15.1876 15.282 15.0684 15.5239 14.8821 15.6841L14.881 15.6852C14.4617 15.8835 13.9719 16 13.4551 16C13.3446 16 13.2362 15.9944 13.1289 15.9843L13.143 15.9854C11.4376 15.9518 9.85564 15.4355 8.511 14.5651L8.54893 14.5875C6.91174 13.5592 5.55518 12.2207 4.5215 10.639L4.49225 10.592C3.51059 9.24559 2.59502 7.72445 1.81489 6.12041L1.73904 5.94791C1.28288 5.04957 0.810468 3.94511 0.403067 2.8093L0.338056 2.60207C0.172279 2.09129 0.0520087 1.49762 0.00216703 0.882666L0 0.854662C0 0.288621 0.322165 0.0056008 0.966494 0.0056008H3.81614C3.84214 0.00336053 3.87248 0.00224011 3.9039 0.00224011C4.17261 0.00224011 4.42074 0.0974517 4.61685 0.257631L4.61469 0.255391C4.83139 0.5007 4.99175 0.802016 5.07085 1.13806L5.0741 1.1515C5.59852 2.68272 6.15436 3.96864 6.79363 5.20078L6.72104 5.04733C7.24329 6.13386 7.8208 7.06917 8.47958 7.93279L8.45466 7.89807C9.03253 8.63138 9.48327 8.99804 9.80688 8.99804C9.81664 8.99916 9.82856 8.99916 9.84156 8.99916C10.0019 8.99916 10.1417 8.90955 10.2175 8.77513L10.2186 8.77289C10.2988 8.56007 10.3454 8.31252 10.3454 8.05489C10.3454 8 10.3432 7.94511 10.3389 7.89135V7.89807V3.55307C10.3161 3.04116 10.1948 2.56287 9.99217 2.13386L10.0008 2.15514C9.86648 1.85942 9.70503 1.60403 9.51325 1.37665L9.5165 1.38113C9.33881 1.19742 9.21745 0.956595 9.17953 0.687762L9.17845 0.681041C9.17845 0.490619 9.26296 0.319238 9.39515 0.207225L9.39623 0.206105C9.52734 0.0817698 9.70287 0.00672085 9.89465 0.00672085H9.90332H14.3956C14.4194 0.00336045 14.4465 0.00224011 14.4747 0.00224011C14.6859 0.00224011 14.8756 0.100812 15.0012 0.255391L15.0023 0.256511C15.1139 0.467096 15.18 0.719126 15.18 0.985718C15.18 1.02828 15.1779 1.06973 15.1746 1.11117V1.10557V6.90003C15.1724 6.92691 15.1714 6.95827 15.1714 6.98964C15.1714 7.19574 15.2266 7.38953 15.322 7.55419L15.3198 7.54971C15.3989 7.67068 15.5311 7.74909 15.6806 7.74909C15.8713 7.73565 16.0458 7.67068 16.192 7.56763L16.1888 7.56987C16.4835 7.3604 16.737 7.12181 16.957 6.85186L16.9613 6.84626C17.619 6.07785 18.2258 5.22879 18.7545 4.32596L18.7968 4.24755C19.1695 3.60907 19.5726 2.82274 19.9377 2.01512L20.0049 1.85046L20.4882 0.851302C20.6561 0.351722 21.1069 0 21.6367 0C21.6573 0 21.6779 -8.1299e-08 21.6984 0.00112005H21.6952H24.5459C25.3159 0.00112005 25.6049 0.367404 25.4127 1.09997H25.4116Z" fill="#0B766B"/>
</svg>
