<svg width="61" height="85" fill="none" xmlns="http://www.w3.org/2000/svg"><path d="M30.496 21.416c-4.648 0-8.433 3.785-8.433 8.434 0 4.648 3.785 8.433 8.433 8.433 4.649 0 8.434-3.785 8.434-8.433 0-4.649-3.785-8.434-8.434-8.434z" fill="#0B766B"/><path d="M30.498.332C14.195.332.98 13.547.98 29.85c0 18.278 22.529 47.364 28.223 54.204.68.813 1.926.813 2.59 0 5.661-6.823 27.94-35.793 28.223-54.204C60.265 13.547 46.8.332 30.498.332zm0 46.385c-9.297 0-16.867-7.57-16.867-16.867s7.57-16.868 16.867-16.868 16.867 7.57 16.867 16.868c0 9.297-7.57 16.867-16.867 16.867z" fill="#0B766B"/></svg>