<svg width="66" height="14" fill="none" xmlns="http://www.w3.org/2000/svg"><path fill-rule="evenodd" clip-rule="evenodd" d="M62.03 8.485c.155.136.232.212.329.29 1.044.888 2.089 1.78 3.114 2.668.057.058.155.136.212.193.388.388.425.949.06 1.334-.35.388-.89.445-1.297.116-.736-.6-1.432-1.218-2.147-1.818-1.025-.87-2.03-1.74-3.056-2.61-.077-.077-.193-.155-.349-.271 0 .212-.02.348-.02.483v3.423c-.039.542-.444.929-.987.89-.521-.02-.87-.407-.889-.948V1.171c0-.348.04-.407.368-.407.444-.02.89-.02 1.334-.02 1.064 0 2.166.04 3.23-.02 1.798-.076 3.81 1.374 4.003 3.482a3.828 3.828 0 01-3.057 4.082c-.248.061-.52.138-.848.197zm-3.268-1.49c.116.02.193.02.252.02h2.69c.251 0 .522-.02.772-.116.833-.252 1.49-.753 1.702-1.644.368-1.529-.773-2.922-2.34-2.922h-2.786c-.116 0-.213.02-.329.02.04 1.546.04 3.075.04 4.643zm-37.889.618h-5.262c0 .156-.02.291-.02.425v4.043c0 .175 0 .348-.039.484-.135.407-.56.657-.967.639a.966.966 0 01-.87-.832c-.02-.116 0-.213 0-.329 0-4.815-.02-5.396-.02-10.194 0-.193.02-.387.077-.56.155-.408.58-.64 1.025-.58a.944.944 0 01.793.831c.02.136 0 .252 0 .388 0 2.476.02.716.02 3.19 0 .156.02.29.02.426.328.076 4.893.076 5.242 0 0-.116.02-.232.02-.368V1.578a.923.923 0 01.889-.87.964.964 0 01.985.832c.02.116 0 .213 0 .329v10.465c-.057.484-.484.87-.968.852-.483-.02-.871-.405-.928-.89V8.042c.003-.118.003-.254.003-.429zM1.779 12.334c-.5-.29-1.536-1.139-1.702-1.721-.116-.348-.136-.736.193-1.045.368-.348.871-.483 1.373-.155.484.348.716.793 1.121 1.2.58.58 1.334.89 2.147.986 1.017.103 2.233.009 3.074-.638.465-.523.6-1.257.04-1.76-.272-.233-.62-.408-.968-.561-.848-.368-1.738-.62-2.629-.852-.953-.227-2.096-.521-2.958-.985C.793 6.435.405 5.854.29 5.12-.33.66 5.22.04 8.316 1.792c.388.213.754.541 1.084.832.252.213.445.522.541.852.097.407-.096.832-.6.948-.425.097-.812-.04-1.121-.368a1.337 1.337 0 01-.155-.193c-1.07-1.624-4.063-1.842-5.396-.62-.349.465-.484 1.085-.02 1.665C3.414 5.631 5.92 6.054 7 6.32c.658.174 1.297.388 1.897.736.773.407 1.334 1.005 1.528 1.877.232 1.064 0 2.07-.832 2.842-2.052 1.84-5.487 1.972-7.815.56zM32.152.768a6.19 6.19 0 016.188 6.188v.045a.622.622 0 01-.503.605v.011H26.582A.622.622 0 0125.961 7v-.044A6.192 6.192 0 0132.15.768zm4.165 4.783a4.397 4.397 0 00-8.331 0h8.331zm.798 5.104a6.181 6.181 0 01-4.964 2.492 6.181 6.181 0 01-4.964-2.492.601.601 0 01-.11-.499.601.601 0 01.298-.412l.478-.277a.62.62 0 01.806.16 4.39 4.39 0 003.492 1.726c1.423 0 2.69-.677 3.493-1.725a.62.62 0 01.805-.161l.479.277c.159.093.26.232.298.412.037.18 0 .35-.11.498zM47.679.768a6.19 6.19 0 016.189 6.188v.045a.622.622 0 01-.504.605v.011H42.11A.622.622 0 0141.488 7v-.044a6.192 6.192 0 016.19-6.187zm4.166 4.783a4.397 4.397 0 00-8.332 0h8.332zm.798 5.104a6.182 6.182 0 01-4.964 2.492 6.182 6.182 0 01-4.964-2.492c-.111-.149-.149-.318-.111-.499a.601.601 0 01.298-.412l.479-.277a.62.62 0 01.805.16 4.39 4.39 0 003.493 1.726 4.391 4.391 0 003.492-1.725.62.62 0 01.806-.161l.478.277c.159.093.26.232.298.412.038.18 0 .35-.11.498z" fill="#1A1A1A"/></svg>