<svg viewBox="0 0 32 33" xmlns="http://www.w3.org/2000/svg" xmlns:xlink="http://www.w3.org/1999/xlink"><style>:root&gt;svg{display:none}:root&gt;svg:target{display:block}</style><svg fill="none" viewBox="0 0 18 18" id="sprite--calendar" xmlns="http://www.w3.org/2000/svg"><path d="M3.17 17.359h11.664a2.218 2.218 0 002.216-2.217V4.097a2.218 2.218 0 00-2.216-2.216h-.88v-.62a.62.62 0 00-.619-.618.62.62 0 00-.619.619v.619h-7.43v-.62a.62.62 0 00-.618-.618.62.62 0 00-.62.619v.619H3.17A2.218 2.218 0 00.953 4.097v11.045c0 1.223.994 2.217 2.217 2.217zM2.19 4.097a.98.98 0 01.979-.978h.879v.62c0 .34.278.618.619.618a.62.62 0 00.619-.619V3.12h7.43v.62c0 .34.278.618.618.618a.62.62 0 00.62-.619V3.12h.879a.98.98 0 01.978.978v11.045a.98.98 0 01-.978.978H3.17a.98.98 0 01-.979-.978V4.097z" fill="#1A1A1A" fill-opacity=".64"/><path d="M5.442 7.763a.774.774 0 100-1.548.774.774 0 000 1.548zm3.406 0a.774.774 0 100-1.548.774.774 0 000 1.548zm3.406 0a.774.774 0 100-1.548.774.774 0 000 1.548zm-6.812 3.095a.774.774 0 100-1.547.774.774 0 000 1.547zm3.406 0a.774.774 0 100-1.547.774.774 0 000 1.547zm3.406 0a.774.774 0 100-1.548.774.774 0 000 1.548zm-6.812 3.096a.774.774 0 100-1.548.774.774 0 000 1.548zm3.406 0a.774.774 0 100-1.548.774.774 0 000 1.548zm3.406 0a.774.774 0 100-1.548.774.774 0 000 1.548z" fill="#1A1A1A" fill-opacity=".64"/></svg><svg fill="none" viewBox="0 0 20 20" id="sprite--clock" xmlns="http://www.w3.org/2000/svg"><path d="M19.923 8.846a8.352 8.352 0 00-.138-.861v-.016a9.932 9.932 0 00-2.724-5.046A10.002 10.002 0 0012.031.2C12.015.2 12 .2 12 .185c-.261-.031-.554-.077-.83-.108a.546.546 0 01-.155-.03 11.21 11.21 0 00-2.03 0 .455.455 0 00-.154.03c-.293.03-.57.077-.846.123-.016 0-.031 0-.047.015a9.993 9.993 0 00-5.015 2.708 9.861 9.861 0 00-2.708 5.03v.032a5.589 5.589 0 00-.138.861c0 .046-.015.092-.015.139A7.496 7.496 0 000 10c0 .338.015.677.046 1.015 0 .046.016.093.016.139.03.292.076.57.138.861v.031a9.887 9.887 0 002.723 5.03A10.02 10.02 0 007.938 19.8c.016 0 .031 0 .047.015.277.062.553.093.83.123.047 0 .108.016.154.031.354.016.693.031 1.031.031.338 0 .677-.015 1.015-.046a.546.546 0 00.154-.03c.277-.032.57-.078.846-.124.016 0 .031 0 .031-.015a9.887 9.887 0 005.03-2.724 9.871 9.871 0 002.724-5.046V12c.061-.277.092-.57.139-.861 0-.047.015-.093.015-.139a11.198 11.198 0 000-2.015c-.015-.047-.015-.093-.03-.139zm-2.23 1.923h.692c-.031.277-.031.554-.077.831 0 .03-.016.062-.016.092-.092.493-.246.97-.43 1.431a.744.744 0 01-.062.17c-.185.446-.43.876-.692 1.292a1.03 1.03 0 01-.108.169c-.154.23-.354.43-.538.646l-.493-.492a.762.762 0 00-1.092 0 .762.762 0 000 1.092l.492.492c-.215.185-.415.385-.646.539-.046.03-.108.061-.154.092a8.717 8.717 0 01-1.292.692c-.046.016-.108.031-.17.062a7.67 7.67 0 01-1.43.43c-.03 0-.062.016-.092.016a7.594 7.594 0 01-.831.077v-.708a.763.763 0 00-.77-.769.749.749 0 00-.753.77v.692c-.277-.031-.554-.031-.831-.077-.03 0-.062-.016-.092-.016a7.663 7.663 0 01-1.431-.43c-.046-.016-.108-.031-.17-.062a8.72 8.72 0 01-1.292-.692c-.046-.031-.107-.062-.153-.093-.231-.154-.431-.354-.647-.538l.493-.492a.762.762 0 000-1.093.762.762 0 00-1.093 0l-.492.493c-.185-.216-.37-.416-.538-.646-.031-.047-.062-.108-.108-.17a8.714 8.714 0 01-.692-1.292c-.016-.062-.047-.108-.062-.17a8.372 8.372 0 01-.415-1.415c0-.03-.016-.061-.016-.092-.046-.277-.046-.554-.077-.83h.693c.43 0 .769-.34.769-.77s-.339-.77-.77-.77h-.692c.031-.276.031-.553.077-.83 0-.03.016-.062.016-.092a7.67 7.67 0 01.43-1.431.55.55 0 00.062-.17c.185-.445.43-.876.692-1.292.031-.046.062-.107.108-.153.154-.231.354-.431.538-.647l.493.493c.154.154.354.23.538.23.185 0 .4-.076.539-.23a.762.762 0 000-1.093l-.493-.492c.216-.185.416-.385.647-.538.046-.031.107-.062.153-.093A8.718 8.718 0 016.708 2.2a.55.55 0 00.169-.062 7.67 7.67 0 011.43-.43c.031 0 .062-.016.093-.016.277-.046.554-.046.83-.077v.693c0 .43.34.769.77.769s.77-.339.77-.77v-.692c.276.031.553.031.83.077.03 0 .062.016.092.016.493.092.97.246 1.431.43.046.016.108.031.17.062.446.185.876.43 1.292.692.046.031.107.062.153.093.231.153.431.353.647.538l-.493.492a.762.762 0 000 1.093.744.744 0 001.077 0l.493-.493c.184.216.369.416.538.647.03.046.061.107.108.169.261.415.507.846.692 1.292.015.062.046.108.061.17.185.46.339.938.431 1.43 0 .03.016.062.016.092.046.277.061.554.077.831h-.693a.763.763 0 00-.769.77c0 .43.339.753.77.753z" fill="#0B766B"/><path d="M13.077 9.232h-2.308V5.385a.762.762 0 00-.77-.769.763.763 0 00-.769.77V10c0 .43.339.77.77.77h3.077c.43 0 .769-.34.769-.77s-.339-.77-.77-.77z" fill="#0B766B"/></svg><svg fill="none" viewBox="0 0 32 33" id="sprite--lightning" xmlns="http://www.w3.org/2000/svg"><rect x="1.25" y="1.75" width="29.5" height="29.5" rx="14.75" fill="#FE7C1D"/><rect x="1.25" y="1.75" width="29.5" height="29.5" rx="14.75" stroke="#fff" stroke-width="2.5"/><g clip-path="url(#cclip0_82_1589)"><path d="M13.44 24.5a.265.265 0 01-.26-.321l1.376-6.451h-3.868a.265.265 0 01-.217-.42l6.868-9.696a.266.266 0 01.477.209l-1.376 6.451h3.869a.265.265 0 01.217.42l-6.869 9.696a.266.266 0 01-.217.112z" fill="#fff"/></g><defs><clipPath id="cclip0_82_1589"><path fill="#fff" transform="translate(7 7.5)" d="M0 0h17v17H0z"/></clipPath></defs></svg><svg fill="none" viewBox="0 0 18 24" id="sprite--location" xmlns="http://www.w3.org/2000/svg"><path fill-rule="evenodd" clip-rule="evenodd" d="M9 1.6a7.2 7.2 0 017.2 7.2c0 1.23-.7 2.913-1.636 4.684a66.608 66.608 0 01-5.565 8.414 66.617 66.617 0 01-5.565-8.414C2.5 11.714 1.8 10.03 1.8 8.8A7.2 7.2 0 019 1.6zM9 0A8.804 8.804 0 00.2 8.8c0 1.42.74 3.387 1.82 5.431A72.225 72.225 0 008.375 23.7a.8.8 0 001.248 0 72.225 72.225 0 006.355-9.469C17.06 12.187 17.8 10.22 17.8 8.8A8.804 8.804 0 009 0z" fill="#0B766B"/><path fill-rule="evenodd" clip-rule="evenodd" d="M8.998 6.933a1.866 1.866 0 110 3.732 1.866 1.866 0 010-3.732zm0-1.6a3.466 3.466 0 100 6.933 3.466 3.466 0 000-6.933z" fill="#0B766B"/></svg><svg fill="none" viewBox="0 0 22 14" id="sprite--mail" xmlns="http://www.w3.org/2000/svg"><path d="M19.417 0H2.583C1.434 0 .5.951.5 2.12v9.76c0 1.169.934 2.12 2.083 2.12h16.834c1.149 0 2.083-.951 2.083-2.12V2.12C21.5.952 20.566 0 19.417 0zm.695 2.12v9.76c0 .11-.031.212-.077.306l-4.908-4.998 4.983-5.075.002.008zM1.888 11.88V2.121l.002-.008 4.983 5.075-4.909 4.998a.704.704 0 01-.076-.307zm9.326-2.706a.306.306 0 01-.428 0l-7.62-7.76h15.668l-7.62 7.76zm-3.36-.985l1.95 1.985a1.665 1.665 0 002.392 0l1.95-1.985 4.319 4.398H3.535l4.32-4.398z" fill="#0B766B"/></svg><svg fill="none" viewBox="0 0 18 18" id="sprite--meds" xmlns="http://www.w3.org/2000/svg"><path fill-rule="evenodd" clip-rule="evenodd" d="M5.364 3.182v.727H3.182A2.182 2.182 0 001 6.091v8.727C1 16.023 1.977 17 3.182 17h11.636A2.182 2.182 0 0017 14.818V6.091a2.182 2.182 0 00-2.182-2.182h-2.182v-.727A2.182 2.182 0 0010.455 1h-2.91a2.182 2.182 0 00-2.181 2.182zm2.181-1.455c-.803 0-1.454.651-1.454 1.455v.727h5.818v-.727c0-.804-.651-1.455-1.455-1.455H7.545zM1.727 6.091c0-.803.651-1.455 1.455-1.455h11.636c.803 0 1.455.652 1.455 1.455v8.727c0 .803-.652 1.455-1.455 1.455H3.182a1.455 1.455 0 01-1.455-1.455V6.091zm4.728 3.636h1.818V7.91c0-.2.163-.364.363-.364h.728c.2 0 .363.163.363.364v1.818h1.819c.2 0 .363.163.363.364v.727a.364.364 0 01-.364.364H9.728V13c0 .2-.163.364-.363.364h-.728A.364.364 0 018.273 13v-1.818H6.455a.364.364 0 01-.364-.364v-.727c0-.2.163-.364.364-.364zm4-1.818V9h1.09a1.09 1.09 0 011.091 1.09v.728a1.09 1.09 0 01-1.09 1.091h-1.091V13a1.09 1.09 0 01-1.091 1.09h-.728A1.09 1.09 0 017.546 13v-1.09H6.454a1.09 1.09 0 01-1.091-1.092v-.727A1.09 1.09 0 016.453 9h1.091V7.91c0-.603.489-1.092 1.091-1.092h.728c.602 0 1.09.489 1.09 1.091z" fill="#1A1A1A" fill-opacity=".64"/><path d="M8.273 9.827h.1V7.91c0-.145.118-.264.263-.264h.728c.145 0 .263.119.263.264v1.917h1.919c.145 0 .263.118.263.264v.727a.264.264 0 01-.263.264H9.627V13a.264.264 0 01-.263.264h-.728A.264.264 0 018.373 13v-1.918H6.455a.264.264 0 01-.264-.264v-.727c0-.146.118-.264.264-.264h1.818zm-3.01-6.645v.627h-2.08A2.282 2.282 0 00.9 6.091v8.727A2.282 2.282 0 003.182 17.1h11.636a2.282 2.282 0 002.282-2.282V6.091a2.282 2.282 0 00-2.282-2.282h-2.082v-.627A2.282 2.282 0 0010.454.9H7.545a2.282 2.282 0 00-2.281 2.282zm.928 0c0-.748.606-1.355 1.354-1.355h2.91c.748 0 1.354.607 1.354 1.355v.627H6.191v-.627zM1.827 6.09c0-.748.607-1.355 1.355-1.355h11.636c.748 0 1.355.607 1.355 1.355v8.727c0 .748-.607 1.355-1.355 1.355H3.182a1.355 1.355 0 01-1.355-1.355V6.091zM7.445 8.9h-.99a1.19 1.19 0 00-1.191 1.19v.728a1.19 1.19 0 001.19 1.191h.991V13c0 .658.534 1.19 1.191 1.19h.728a1.19 1.19 0 001.19-1.19v-.99h.992a1.19 1.19 0 001.19-1.192v-.727a1.19 1.19 0 00-1.19-1.191h-.991v-.99a1.19 1.19 0 00-1.191-1.192h-.728a1.19 1.19 0 00-1.19 1.191V8.9z" stroke="#1A1A1A" stroke-opacity=".64" stroke-width=".2"/></svg><svg fill="none" viewBox="0 0 16 24" id="sprite--phone" xmlns="http://www.w3.org/2000/svg"><path d="M14.835 1.17A3.976 3.976 0 0012 0H4.005A3.998 3.998 0 000 3.998v16.005a3.997 3.997 0 004.005 3.998H12a3.998 3.998 0 003.998-3.998V3.998a3.968 3.968 0 00-1.163-2.828zm-.427 18.826a2.4 2.4 0 01-2.4 2.4H4.005a2.4 2.4 0 01-2.4-2.4V3.998a2.4 2.4 0 012.4-2.4h.615V2.4a.803.803 0 00.803.803h5.167a.803.803 0 00.795-.803v-.802H12a2.4 2.4 0 012.4 2.4l.008 15.998z" fill="#0B766B"/><path d="M6.402 19.201h3.203V20.8H6.402v-1.6z" fill="#0B766B"/></svg><svg fill="none" viewBox="0 0 16 18" id="sprite--shield" xmlns="http://www.w3.org/2000/svg"><path d="M15.506 4.656c-.01-.484-.018-.941-.018-1.383a.627.627 0 00-.627-.627c-2.682 0-4.723-.77-6.425-2.425a.627.627 0 00-.874 0C5.86 1.875 3.818 2.646 1.137 2.646a.627.627 0 00-.627.627c0 .442-.009.9-.018 1.383-.086 4.5-.204 10.665 7.301 13.266a.626.626 0 00.411 0c7.505-2.601 7.388-8.765 7.302-13.266zM8 16.665C1.563 14.327 1.66 9.205 1.747 4.68l.014-.793C4.272 3.781 6.281 3.02 8 1.522c1.72 1.498 3.728 2.26 6.24 2.365.003.258.008.521.013.792.086 4.525.184 9.647-6.253 11.986z" fill="#1A1A1A" fill-opacity=".64"/><path d="M10.158 6.822L7.13 9.85 5.84 8.557a.627.627 0 00-.887.887l1.735 1.735a.625.625 0 00.887 0l3.47-3.47a.627.627 0 10-.887-.887z" fill="#1A1A1A" fill-opacity=".64"/></svg><svg fill="none" viewBox="0 0 26 22" id="sprite--tg" xmlns="http://www.w3.org/2000/svg"><path d="M10.202 14.5l-.43 6.142c.615 0 .882-.269 1.201-.59l2.885-2.8 5.979 4.445c1.096.62 1.868.293 2.164-1.024l3.924-18.67h.001c.348-1.646-.586-2.29-1.654-1.886L1.207 9.083c-1.574.62-1.55 1.511-.268 1.915l5.897 1.863 13.697-8.703c.645-.433 1.23-.193.749.24L10.202 14.5z" fill="#0B766B"/></svg><svg fill="none" viewBox="0 0 18 18" id="sprite--time" xmlns="http://www.w3.org/2000/svg"><path d="M9 17c4.41 0 8-3.59 8-8s-3.59-8-8-8-8 3.59-8 8 3.59 8 8 8zM9 2.067A6.94 6.94 0 0115.933 9 6.94 6.94 0 019 15.933 6.94 6.94 0 012.067 9 6.94 6.94 0 019 2.067z" fill="#1A1A1A" fill-opacity=".64"/><path d="M11.333 11.55a.53.53 0 00.75-.083.533.533 0 00-.083-.75L9.533 8.744v-4.01A.535.535 0 009 4.2a.535.535 0 00-.533.533V9c0 .163.074.315.2.416l2.666 2.133z" fill="#1A1A1A" fill-opacity=".64"/><path d="M12.063 10.64h0l-2.43-1.944V4.733A.635.635 0 009 4.1a.635.635 0 00-.633.633V9c0 .194.089.374.237.494h0l2.666 2.133s0 0 0 0a.63.63 0 00.89-.098.634.634 0 00-.097-.89zM9 17.1c4.466 0 8.1-3.634 8.1-8.1C17.1 4.534 13.466.9 9 .9 4.534.9.9 4.534.9 9c0 4.466 3.634 8.1 8.1 8.1zM9 2.167A6.84 6.84 0 0115.833 9 6.84 6.84 0 019 15.833 6.84 6.84 0 012.167 9 6.84 6.84 0 019 2.167z" stroke="#1A1A1A" stroke-opacity=".64" stroke-width=".2"/></svg><svg fill="none" viewBox="0 0 14 16" id="sprite--user" xmlns="http://www.w3.org/2000/svg"><path d="M11.761 8.11a.616.616 0 10-.865.876 5.501 5.501 0 011.642 3.936c0 .753-2.157 1.847-5.538 1.847-3.381 0-5.539-1.095-5.539-1.848a5.5 5.5 0 011.622-3.915.615.615 0 10-.87-.87A6.724 6.724 0 00.23 12.921C.23 14.921 3.718 16 7 16c3.282 0 6.769-1.078 6.769-3.077a6.72 6.72 0 00-2.008-4.811z" fill="#1A1A1A" fill-opacity=".64"/><path d="M7 8.615A4.308 4.308 0 107 0a4.308 4.308 0 000 8.615zm0-7.384a3.077 3.077 0 110 6.154A3.077 3.077 0 017 1.23z" fill="#1A1A1A" fill-opacity=".64"/></svg><svg fill="none" viewBox="0 0 26 16" id="sprite--vk" xmlns="http://www.w3.org/2000/svg"><path d="M25.412 1.1a9.778 9.778 0 01-1.181 2.53l.02-.033c-.485.836-1.065 1.802-1.739 2.899-.578.865-.884 1.313-.918 1.344-.15.194-.253.431-.289.692v.008c.028.237.134.445.29.6l.433.499c2.319 2.463 3.623 4.161 3.912 5.094a1.021 1.021 0 01-.121.929l.002-.004a1.03 1.03 0 01-.85.324h.005-2.856c-.365 0-.701-.132-.964-.352l.003.003a7.64 7.64 0 01-1.03-1.062l-.01-.014c-.5-.583-.942-1.074-1.329-1.473-1.287-1.265-2.237-1.897-2.85-1.897a.833.833 0 00-.56.151l.005-.002a.878.878 0 00-.174.654v-.005a14.49 14.49 0 00-.04 1.572v-.02 1.3a.885.885 0 01-.288.848h-.002a3.35 3.35 0 01-1.752.3h.014a8.806 8.806 0 01-4.632-1.42l.038.023a13.121 13.121 0 01-4.027-3.949l-.03-.047A29.711 29.711 0 011.815 6.12l-.076-.172A28.104 28.104 0 01.403 2.809l-.065-.207A7.665 7.665 0 01.002.882L0 .856C0 .29.322.006.966.006h2.85a1.123 1.123 0 01.8.252V.256c.216.246.377.547.456.883l.003.014A28.976 28.976 0 006.794 5.2l-.073-.154A16.396 16.396 0 008.48 7.933l-.025-.035c.578.733 1.028 1.1 1.352 1.1l.035.001c.16 0 .3-.09.375-.224l.002-.002a2.057 2.057 0 00.12-.882v.007-4.345a3.695 3.695 0 00-.347-1.42l.009.022a3.324 3.324 0 00-.488-.778l.004.004A1.246 1.246 0 019.18.688L9.178.68a.62.62 0 01.217-.474h.001a.722.722 0 01.499-.2h4.501a.678.678 0 01.606.249 1.565 1.565 0 01.173.855v-.005V6.9a1.135 1.135 0 00.147.654l-.002-.004c.079.12.211.2.36.2.191-.014.366-.08.512-.182l-.003.002a3.89 3.89 0 00.768-.718l.004-.006a17.457 17.457 0 001.794-2.52l.042-.078a24.92 24.92 0 001.14-2.233l.068-.165.483-.999c.168-.5.619-.851 1.149-.851l.061.001h-.003 2.85c.77 0 1.06.366.868 1.099h-.001z" fill="#0B766B"/></svg></svg>