<svg width="248" height="45" viewBox="0 0 248 45" fill="none" xmlns="http://www.w3.org/2000/svg">
<g clip-path="url(#clip0_187_42)">
<path fill-rule="evenodd" clip-rule="evenodd" d="M21.2 0H42.4V21.1V21.2C42.4 32.6 33.3 42 22 42.4C29 40.3 34 33.8 34 26.2V26.1V9.1H17C8.5 9.1 1.4 15.4 0.1 23.6C0 22.9 0 22.1 0 21.2C0 9.6 9.6 0 21.2 0Z" fill="url(#paint0_linear_187_42)"/>
<path fill-rule="evenodd" clip-rule="evenodd" d="M12.5 17.5H25V30C25 36.9 19.4 42.5 12.5 42.5H0V30C0 23.1 5.6 17.5 12.5 17.5Z" fill="url(#paint1_linear_187_42)"/>
<path d="M77.4 22H77.1L74.7 28.2L70.6 38.3C70.3 39.1 69.9 39.6 69.6 39.9C69.3 40.2 68.7 40.3 68 40.3H66C65.2 40.3 64.7 40.2 64.4 39.9C64.1 39.6 63.8 39.1 63.5 38.3L59.5 28.7L57 22.5H56.7V43C56.7 43.4 56.6 43.7 56.5 43.8C56.3 44 56 44 55.6 44H52.3C52 44 51.7 43.9 51.5 43.8C51.3 43.7 51.2 43.4 51.2 43V14.8C51.2 13.9 51.4 13.2 51.7 12.7C52.1 12.2 52.8 12 53.8 12H55.7C56.5 12 57.1 12.1 57.5 12.4C57.9 12.7 58.3 13.2 58.6 14L64 27.4L66.8 34.5H67L69.8 27.4L75.2 14.1C75.5 13.3 75.9 12.7 76.3 12.5C76.7 12.2 77.3 12.1 78.1 12.1H79.8C80.8 12.1 81.5 12.3 81.9 12.7C82.3 13.1 82.5 13.8 82.5 14.8V43.2C82.5 43.6 82.4 43.9 82.3 44C82.3 44 82.1 44 81.7 44H78.5C78.2 44 77.9 43.9 77.7 43.8C77.5 43.7 77.4 43.4 77.4 43V22ZM110.4 31.9C110.4 35.9 109.5 39.1 107.6 41.2C105.7 43.4 102.9 44.5 99.2 44.5C95.5 44.5 92.8 43.4 91 41.3C89.2 39.2 88.3 36.1 88.3 32C88.3 30 88.6 28.2 89.1 26.7C89.6 25.1 90.4 23.8 91.4 22.8C92.4 21.7 93.5 20.9 94.9 20.4C96.3 19.8 97.8 19.6 99.4 19.6C103 19.6 105.8 20.7 107.6 22.9C109.4 25 110.4 28.1 110.4 31.9ZM104.9 32.1C104.9 31 104.8 30 104.6 29C104.4 28 104.1 27.2 103.7 26.4C103.3 25.6 102.7 25.1 102 24.6C101.3 24.2 100.4 24 99.3 24C98.3 24 97.5 24.2 96.7 24.6C96 25 95.4 25.6 94.9 26.3C94.4 27 94.1 27.8 93.8 28.8C93.6 29.8 93.5 30.8 93.5 32C93.5 34.5 93.9 36.5 94.7 38C95.5 39.5 97 40.2 99.1 40.2C100.2 40.2 101.1 40 101.8 39.5C102.5 39.1 103.1 38.5 103.6 37.7C104 37 104.4 36.1 104.6 35.2C104.8 34.2 104.9 33.1 104.9 32.1ZM125.8 39.9C126.8 39.9 127.7 39.8 128.7 39.5C129.7 39.3 130.5 39 131.1 38.7C131.4 38.5 131.7 38.5 131.8 38.6C131.9 38.7 132.1 38.8 132.1 39.1L133.2 41.7C133.5 42.2 133.4 42.6 132.9 42.8C131.7 43.5 130.3 44 128.9 44.2C127.5 44.4 126.1 44.5 124.9 44.5C121.5 44.5 118.9 43.5 117.1 41.4C115.3 39.3 114.4 36.3 114.4 32.2C114.4 30.3 114.7 28.5 115.2 27C115.7 25.4 116.5 24.1 117.4 23C118.4 21.9 119.5 21 120.9 20.4C122.3 19.8 123.8 19.5 125.5 19.5C126.7 19.5 128 19.6 129.1 19.9C130.3 20.2 131.4 20.6 132.4 21.1C132.7 21.3 132.8 21.4 132.9 21.6C133 21.8 132.9 22 132.8 22.3L131.7 25C131.6 25.2 131.4 25.4 131.3 25.5C131.2 25.6 130.9 25.5 130.5 25.4C129.8 25.1 129 24.9 128.2 24.7C127.4 24.5 126.6 24.4 125.7 24.4C124.7 24.4 123.8 24.6 123 25.1C122.3 25.5 121.6 26.1 121.2 26.9C120.7 27.6 120.4 28.5 120.2 29.4C120 30.4 119.9 31.4 119.9 32.4C119.9 33.5 120 34.5 120.2 35.4C120.4 36.3 120.7 37.1 121.1 37.8C121.5 38.5 122.1 39 122.9 39.4C123.7 39.7 124.6 39.9 125.8 39.9Z" fill="#F01A1A"/>
<path d="M155.6 26.9C156.4 27.2 157 27.5 157.6 27.8C158.1 28.2 158.5 28.6 158.9 29C159.2 29.5 159.5 30 159.7 30.6C159.9 31.2 160.1 31.8 160.3 32.4L163.1 43C163.2 43.2 163.2 43.3 163.1 43.6C163.1 43.8 162.8 43.9 162.4 43.9H158.4C158.2 43.9 158.1 43.9 157.9 43.8C157.7 43.7 157.6 43.6 157.5 43.3L154.8 33.3C154.3 31.7 153.7 30.6 152.8 30C151.9 29.5 150.7 29.2 149.1 29.2H143.9V43.2C143.9 43.5 143.8 43.7 143.7 43.8C143.6 43.9 143.4 43.9 143.1 43.9H139.2C138.9 43.9 138.7 43.9 138.6 43.8C138.5 43.7 138.4 43.5 138.4 43.2V12.8C138.4 12.5 138.5 12.3 138.6 12.2C138.7 12.1 138.9 12.1 139.2 12.1H143.1C143.4 12.1 143.6 12.1 143.7 12.2C143.8 12.3 143.9 12.5 143.8 12.8V24.7H148.7C149.2 24.7 149.6 24.7 150.2 24.6C150.7 24.5 151.2 24.3 151.7 24C152.2 23.7 152.7 23.3 153.1 22.7C153.5 22.1 153.9 21.3 154.1 20.4L156.1 12.7C156.2 12.4 156.3 12.2 156.5 12.2C156.7 12.1 156.9 12.1 157 12.1H160.7C161.1 12.1 161.3 12.2 161.4 12.4C161.4 12.6 161.4 12.8 161.4 13L159.4 21.2C159.1 22.5 158.6 23.6 158 24.6C157.4 25.6 156.6 26.3 155.6 26.9ZM185 20.1C186 20.1 186.7 20.3 187 20.7C187.4 21.1 187.5 21.8 187.5 22.6V43.1C187.5 43.4 187.4 43.7 187.3 43.8C187.2 43.9 186.9 44 186.5 44H183.2C182.9 44 182.6 43.9 182.5 43.8C182.4 43.7 182.2 43.5 182.2 43.1V24.5H175L174.8 27.4C174.6 30.3 174.4 32.7 174.1 34.8C173.8 36.8 173.4 38.5 172.9 39.8C172.4 41.1 171.6 42.2 170.7 43C169.8 43.8 168.5 44.4 167 44.8C166.6 44.9 166.3 45 166.1 44.9C165.9 44.9 165.8 44.7 165.7 44.4L164.8 41.9C164.7 41.5 164.7 41.3 164.7 41.1C164.8 41 165 40.8 165.4 40.6C166.2 40.3 166.8 39.9 167.3 39.4C167.8 38.9 168.2 38.3 168.6 37.3C168.9 36.4 169.2 35.1 169.4 33.6C169.6 32.1 169.8 30 170 27.4L170.4 22.6C170.5 21.7 170.7 21 171.2 20.6C171.6 20.2 172.3 20 173.1 20H185V20.1ZM193.5 20.8C193.5 20.5 193.6 20.3 193.7 20.2C193.8 20.1 194 20.1 194.3 20.1H197.9C198.2 20.1 198.5 20.1 198.6 20.2C198.7 20.3 198.8 20.5 198.8 20.8V36.5H199L201.8 31.9C202 31.6 202.2 31.3 202.4 30.9C202.6 30.5 202.9 30 203.4 29.3C203.9 28.6 204.5 27.6 205.2 26.4C206 25.2 207 23.6 208.3 21.5C208.7 20.9 209 20.5 209.4 20.3C209.7 20.1 210.2 20 211 20H212.6C213.3 20 213.9 20.2 214.3 20.5C214.7 20.8 214.9 21.4 214.9 22.2V43.3C214.9 43.6 214.8 43.8 214.7 43.9C214.6 44 214.4 44 214.1 44H210.4C210.1 44 209.9 44 209.8 43.9C209.7 43.8 209.6 43.6 209.6 43.3V27.9H209.3L206.6 32.3L200 42.6C199.6 43.2 199.2 43.6 198.9 43.8C198.6 44 198.1 44.1 197.4 44.1H195.8C194.3 44.1 193.6 43.4 193.6 41.9V20.8H193.5ZM242.6 28.5L240.4 33.5L237.4 39.8C237.1 40.4 236.8 40.8 236.5 41C236.2 41.2 235.7 41.3 235.1 41.3H233.5C232.9 41.3 232.4 41.2 232.1 41C231.8 40.8 231.5 40.4 231.2 39.8L228.4 33.9L226.1 29H225.9V43.4C225.9 43.7 225.8 43.9 225.7 44C225.6 44.1 225.3 44.1 225 44.1H221.6C221.3 44.1 221.1 44.1 220.9 44C220.7 43.9 220.7 43.7 220.7 43.4V22.4C220.7 21.8 220.9 21.3 221.2 20.8C221.6 20.4 222.2 20.2 223 20.2H225.1C225.7 20.2 226.2 20.3 226.6 20.5C227 20.7 227.3 21.1 227.7 21.8L231.7 30.1L234.3 35.8H234.5L237.4 29.6L241.1 21.9C241.4 21.2 241.8 20.8 242.2 20.6C242.6 20.4 243.1 20.3 243.8 20.3H245.8C246.6 20.3 247.2 20.5 247.6 20.9C248 21.3 248.1 21.8 248.1 22.4V43.5C248.1 43.8 248 44 247.9 44.1C247.8 44.2 247.5 44.2 247.2 44.2H243.9C243.6 44.2 243.3 44.2 243.2 44.1C243.1 44 243 43.8 243 43.5V28.5H242.6Z" fill="#66A316"/>
<path d="M171.1 11V16.4H172.3V12H174.3V11H171.1ZM175 18.5H176.2V15.7C176.4 16.1 177 16.4 177.6 16.4C178.7 16.4 179.8 15.5 179.8 13.5C179.8 11.8 178.9 10.8 177.8 10.8C177.1 10.8 176.5 11.1 176.1 11.7L176 10.9H175C175 11.4 175 12 175 12.7V18.5ZM176.3 13.3C176.3 13.2 176.3 13.1 176.3 13C176.4 12.4 176.9 12 177.4 12C178.2 12 178.6 12.8 178.6 13.7C178.6 14.8 178.1 15.5 177.4 15.5C176.9 15.5 176.4 15.1 176.3 14.6C176.3 14.5 176.3 14.4 176.3 14.2V13.3ZM180.1 11L181.9 15.9C182 16 182 16.1 182 16.2C182 16.3 182 16.3 181.9 16.4C181.7 16.8 181.5 17.1 181.2 17.2C181 17.4 180.7 17.5 180.5 17.6L180.8 18.7C181.1 18.7 181.6 18.5 182.1 18C182.7 17.5 183.1 16.6 183.8 14.6L185 11H183.7L182.9 13.9C182.8 14.3 182.7 14.6 182.6 15C182.5 14.7 182.4 14.3 182.3 14L181.4 11.1H180.1V11ZM185.7 11V16.4H186.9V12H188.7V16.3H189.9V11H185.7ZM191.3 11V16.4H192.5V12H194.3V16.3H195.5V11H191.3ZM200.7 16.3C200.6 16 200.6 15.5 200.6 15V13.1C200.6 11.9 200.2 10.8 198.6 10.8C197.8 10.8 197.2 11 196.8 11.3L197 12.2C197.3 12 197.8 11.8 198.3 11.8C199.2 11.8 199.3 12.4 199.3 12.7V12.8C197.5 12.8 196.4 13.5 196.4 14.8C196.4 15.6 196.9 16.4 197.9 16.4C198.5 16.4 199 16.1 199.3 15.7L199.4 16.3H200.7ZM199.5 14.5C199.5 14.6 199.5 14.7 199.5 14.8C199.4 15.2 199 15.5 198.5 15.5C198.1 15.5 197.8 15.3 197.8 14.7C197.8 13.9 198.6 13.7 199.5 13.7V14.5ZM204 11V16.4H205.2V14.2H205.4C206 14.2 206.4 14.6 206.7 15.3C206.9 15.8 207 16.2 207.1 16.4H208.4C208.2 15.9 208 15.3 207.9 14.9C207.6 14 207.2 13.5 206.5 13.3L208.4 10.9H206.9L205.4 13.1H205.2V11H204ZM211.2 10.9C209.7 10.9 208.7 12 208.7 13.7C208.7 15.4 209.8 16.5 211.1 16.5C212.3 16.5 213.6 15.6 213.6 13.7C213.6 12 212.7 10.9 211.2 10.9ZM211.2 11.8C212 11.8 212.4 12.8 212.4 13.6C212.4 14.7 211.9 15.4 211.2 15.4C210.5 15.4 210 14.6 210 13.6C210 12.8 210.3 11.8 211.2 11.8ZM214.4 16.3H215.5L215.6 14C215.6 13.5 215.6 12.8 215.7 12.1C215.8 12.6 216 13.4 216.1 13.9L216.8 16.3H217.7L218.5 13.9C218.8 13.1 218.8 12.8 219 12.2C219 12.8 219 13.6 219.1 14.1L219.2 16.4H220.3L220 11H218.5L217.9 13.1C217.7 13.7 217.5 14.3 217.4 14.7C217.3 14.2 217.1 13.7 217 13.3L216.3 11H214.8L214.4 16.3ZM221.4 11V16.4H222.6V12H224.4V16.3H225.6V11H221.4ZM230.9 16.3C230.8 16 230.8 15.5 230.8 15V13.1C230.8 11.9 230.4 10.8 228.8 10.8C228 10.8 227.4 11 227 11.3L227.2 12.2C227.5 12 228 11.8 228.5 11.8C229.4 11.8 229.5 12.4 229.5 12.7V12.8C227.7 12.8 226.6 13.5 226.6 14.8C226.6 15.6 227.1 16.4 228.1 16.4C228.7 16.4 229.2 16.1 229.5 15.7L229.6 16.3H230.9ZM229.6 14.5C229.6 14.6 229.6 14.7 229.6 14.8C229.5 15.2 229.1 15.5 228.6 15.5C228.2 15.5 227.9 15.3 227.9 14.7C227.9 13.9 228.7 13.7 229.6 13.7V14.5ZM232.1 11V16.4H233.3V14.1H235.2V16.4H236.4V11H235.2V13H233.3V11H232.1ZM237.7 11V16.4H239.2C239.6 15.5 240.1 14.6 240.4 13.8C240.6 13.3 240.8 12.9 241 12.3C241 13.3 240.9 13.7 240.9 14.6V16.5H242.1V11H240.6L239.4 13.5C239.2 14.1 239 14.5 238.7 15.1C238.7 14.4 238.8 13.8 238.8 12.9V11H237.7ZM243.5 11V16.4H245C245.4 15.5 245.9 14.6 246.2 13.8C246.4 13.3 246.6 12.9 246.8 12.3C246.8 13.3 246.7 13.7 246.7 14.6V16.5H247.9V11H246.4L245.2 13.5C245 14.1 244.8 14.5 244.5 15.1C244.5 14.4 244.6 13.8 244.6 12.9V11H243.5ZM244.3 8.80005C244.3 9.70005 244.7 10.3 245.6 10.3C246.4 10.3 247 9.80005 247 8.80005H246.2C246.2 9.30005 246 9.60005 245.6 9.60005C245.3 9.60005 245.1 9.30005 245.1 8.80005H244.3Z" fill="#66A316"/>
</g>
<defs>
<linearGradient id="paint0_linear_187_42" x1="0" y1="21.2394" x2="42.499" y2="21.2394" gradientUnits="userSpaceOnUse">
<stop stop-color="#2E5E6D"/>
<stop offset="1" stop-color="#214250"/>
</linearGradient>
<linearGradient id="paint1_linear_187_42" x1="0" y1="30.0012" x2="24.9554" y2="30.0012" gradientUnits="userSpaceOnUse">
<stop stop-color="#518311"/>
<stop offset="1" stop-color="#79BF1B"/>
</linearGradient>
<clipPath id="clip0_187_42">
<rect width="247.9" height="44.8" fill="white"/>
</clipPath>
</defs>
</svg>
