<svg width="61" height="85" viewBox="0 0 61 85" fill="none" xmlns="http://www.w3.org/2000/svg">
<path d="M30.4961 21.416C25.8477 21.416 22.0625 25.2012 22.0625 29.8496C22.0625 34.498 25.8477 38.2832 30.4961 38.2832C35.1445 38.2832 38.9297 34.498 38.9297 29.8496C38.9297 25.2012 35.1445 21.416 30.4961 21.416Z" fill="#0B766B"/>
<path d="M30.498 0.332031C14.1953 0.332031 0.980469 13.5469 0.980469 29.8496C0.980469 48.1279 23.5088 77.2139 29.2031 84.0537C29.8838 84.8672 31.1289 84.8672 31.793 84.0537C37.4541 77.2305 59.7334 48.2607 60.0156 29.8496C60.2646 13.5469 46.8008 0.332031 30.498 0.332031ZM30.498 46.7168C21.2012 46.7168 13.6309 39.1465 13.6309 29.8496C13.6309 20.5527 21.2012 12.9824 30.498 12.9824C39.7949 12.9824 47.3652 20.5527 47.3652 29.8496C47.3652 39.1465 39.7949 46.7168 30.498 46.7168Z" fill="#0B766B"/>
</svg>
