<svg width="32" height="33" viewBox="0 0 32 33" fill="none" xmlns="http://www.w3.org/2000/svg">
<path d="M9.33301 24.5V21.1666M9.33301 21.1666V19.1666C9.33301 18.5381 9.33301 18.2238 9.53803 18.0286C9.74306 17.8333 10.073 17.8333 10.733 17.8333H11.6663C12.6328 17.8333 13.4163 18.5795 13.4163 19.5C13.4163 20.4205 12.6328 21.1666 11.6663 21.1666H9.33301ZM27.9997 17.8333H26.2497C25.1497 17.8333 24.5998 17.8333 24.2581 18.1587C23.9163 18.4842 23.9163 19.008 23.9163 20.0555V21.1666M23.9163 24.5V21.1666M23.9163 21.1666H26.833M20.9997 21.1666C20.9997 23.0076 19.4327 24.5 17.4997 24.5C17.0635 24.5 16.8454 24.5 16.683 24.4107C16.2941 24.1968 16.333 23.7639 16.333 23.3889V18.9444C16.333 18.5694 16.2941 18.1365 16.683 17.9226C16.8454 17.8333 17.0635 17.8333 17.4997 17.8333C19.4327 17.8333 20.9997 19.3257 20.9997 21.1666Z" stroke="white" stroke-width="1.5" stroke-linecap="round" stroke-linejoin="round"/>
<path d="M20.0003 29.8333H14.3034C9.95508 29.8333 7.78095 29.8333 6.27109 28.7695C5.83849 28.4647 5.45443 28.1033 5.13059 27.6961C4.00033 26.2751 4.00033 24.2288 4.00033 20.1363V16.7424C4.00033 12.7915 4.00033 10.8161 4.62558 9.23831C5.63075 6.70188 7.75651 4.70116 10.4515 3.75512C12.1278 3.16665 14.2267 3.16665 18.4246 3.16665C20.8233 3.16665 22.0227 3.16665 22.9806 3.50291C24.5206 4.04351 25.7353 5.18678 26.3097 6.63617C26.667 7.53774 26.667 8.66657 26.667 10.9242V13.8333" stroke="white" stroke-width="1.5" stroke-linecap="round" stroke-linejoin="round"/>
<path d="M3.99967 16.5C3.99967 14.0454 5.98952 12.0556 8.44412 12.0556C9.33183 12.0556 10.3784 12.2111 11.2415 11.9798C12.0084 11.7744 12.6074 11.1754 12.8128 10.4085C13.0441 9.54538 12.8886 8.49882 12.8886 7.61111C12.8886 5.15651 14.8784 3.16667 17.333 3.16667" stroke="white" stroke-width="1.5" stroke-linecap="round" stroke-linejoin="round"/>
</svg>
