<svg width="66" height="14" viewBox="0 0 66 14" fill="none" xmlns="http://www.w3.org/2000/svg">
<path fill-rule="evenodd" clip-rule="evenodd" d="M62.03 8.48479C62.1854 8.6205 62.2621 8.69728 62.3586 8.77406C63.4031 9.66329 64.4477 10.5543 65.4727 11.4435C65.5298 11.5007 65.628 11.5792 65.6851 11.6364C66.0726 12.0238 66.1101 12.5845 65.7441 12.9702C65.3959 13.3577 64.8548 13.4148 64.4477 13.0863C63.7121 12.4863 63.0157 11.8685 62.3014 11.2685C61.2765 10.3972 60.2712 9.52758 59.2445 8.65799C59.1677 8.58121 59.0516 8.50265 58.8963 8.38658C58.8963 8.59907 58.8767 8.73478 58.8767 8.87048C58.8767 11.3275 58.8767 9.49008 58.8767 11.9453C58.8767 12.0613 58.8767 12.1774 58.8767 12.2935C58.8374 12.8345 58.432 13.222 57.8892 13.1827C57.3678 13.1631 57.0196 12.7756 57 12.2345C57 12.1185 57 12.0024 57 11.8864C57 7.03132 57 6.47064 57 1.6156C57 1.46026 57 1.32455 57 1.17099C57 0.822798 57.0393 0.763873 57.3678 0.763873C57.8124 0.744231 58.2571 0.744231 58.7017 0.744231C59.7659 0.744231 60.8676 0.783514 61.9318 0.72459C63.7299 0.647809 65.7423 2.09771 65.9351 4.2065C66.1101 6.10281 64.8138 7.9009 62.8782 8.28838C62.63 8.34909 62.3586 8.42587 62.03 8.48479ZM58.7624 6.9956C58.8784 7.01525 58.9552 7.01525 59.0142 7.01525C59.9034 7.01525 60.8122 7.01525 61.7033 7.01525C61.955 7.01525 62.2264 6.9956 62.4764 6.89918C63.3085 6.64741 63.9656 6.14566 64.1781 5.25465C64.5459 3.72618 63.4049 2.33341 61.8372 2.33341C60.9087 2.33341 59.9998 2.33341 59.0516 2.33341C58.9356 2.33341 58.8392 2.35305 58.7231 2.35305C58.7624 3.89938 58.7624 5.42785 58.7624 6.9956Z" fill="#1A1A1A"/>
<path fill-rule="evenodd" clip-rule="evenodd" d="M20.8734 7.61319C19.0932 7.61319 17.3719 7.61319 15.6113 7.61319C15.6113 7.76854 15.5916 7.90424 15.5916 8.03816C15.5916 9.39165 15.5916 10.7273 15.5916 12.0808C15.5916 12.2557 15.5916 12.4289 15.5523 12.5647C15.4166 12.9718 14.9917 13.2218 14.5845 13.2039C14.1399 13.1646 13.7721 12.8164 13.715 12.3718C13.6953 12.2557 13.715 12.1593 13.715 12.0433C13.715 7.2275 13.6953 6.64718 13.6953 1.84929C13.6953 1.65644 13.715 1.46181 13.7721 1.28861C13.9274 0.881493 14.3524 0.649365 14.797 0.70829C15.2024 0.765429 15.5505 1.11362 15.5898 1.54038C15.6095 1.67608 15.5898 1.79215 15.5898 1.92785C15.5898 4.40448 15.6095 2.64388 15.6095 5.11871C15.6095 5.27406 15.6291 5.40798 15.6291 5.54369C15.9577 5.62047 20.5234 5.62047 20.8716 5.54369C20.8716 5.42762 20.8913 5.31156 20.8913 5.17585C20.8913 4.092 20.8913 2.99028 20.8913 1.90643C20.8913 1.79036 20.8913 1.69394 20.8913 1.57788C20.9305 1.09398 21.2984 0.726146 21.7805 0.70829C22.2644 0.688649 22.709 1.05648 22.7661 1.54038C22.7858 1.65644 22.7661 1.75286 22.7661 1.86893C22.7661 5.25442 22.7661 8.62027 22.7661 12.0058C22.7661 12.1218 22.7661 12.2182 22.7661 12.3343C22.709 12.8182 22.2822 13.2039 21.7983 13.186C21.3145 13.1664 20.927 12.7807 20.8698 12.2968C20.8698 12.1807 20.8698 12.0843 20.8698 11.9683C20.8698 10.6719 20.8698 9.33808 20.8698 8.04173C20.8734 7.92389 20.8734 7.78818 20.8734 7.61319Z" fill="#1A1A1A"/>
<path fill-rule="evenodd" clip-rule="evenodd" d="M1.77856 12.3343C1.27859 12.0433 0.242948 11.1951 0.0768877 10.613C-0.0391761 10.2648 -0.0588177 9.87736 0.269732 9.56845C0.637565 9.22026 1.1411 9.08455 1.64286 9.4131C2.12675 9.76129 2.35888 10.2059 2.76421 10.613C3.34453 11.1933 4.09805 11.5023 4.9105 11.5987C5.92829 11.7022 7.14428 11.6076 7.9853 10.9612C8.44955 10.438 8.58526 9.70415 8.02458 9.20062C7.75317 8.96849 7.40498 8.7935 7.05678 8.63994C6.20863 8.27211 5.3194 8.02034 4.42839 7.78821C3.47488 7.56144 2.3321 7.26682 1.46965 6.80256C0.792912 6.43473 0.405437 5.85441 0.289374 5.12053C-0.330228 0.661894 5.21941 0.0405062 8.31742 1.79218C8.70489 2.00466 9.07094 2.33321 9.40127 2.62426C9.65304 2.83675 9.84589 3.14566 9.94231 3.47599C10.0387 3.88311 9.84589 4.30808 9.34235 4.42415C8.91738 4.52057 8.5299 4.38486 8.22099 4.05631C8.16207 3.99917 8.10493 3.92061 8.06565 3.86347C6.99607 2.23858 4.00341 2.02073 2.66957 3.24387C2.32138 3.70812 2.18568 4.32772 2.64993 4.90804C3.41417 5.63121 5.91936 6.0544 7.00143 6.32045C7.65853 6.49365 8.29777 6.70792 8.89774 7.05611C9.6709 7.46323 10.2316 8.06141 10.4262 8.93278C10.6583 9.99699 10.4262 11.0023 9.59412 11.7754C7.54247 13.6146 4.10698 13.7467 1.77856 12.3343Z" fill="#1A1A1A"/>
<path fill-rule="evenodd" clip-rule="evenodd" d="M32.1516 0.767578C35.5692 0.767578 38.3405 3.53882 38.3405 6.95646C38.3405 6.97074 38.3405 6.98681 38.3405 7.0011C38.3387 7.30108 38.1226 7.55106 37.8369 7.60641V7.61713H37.7173H37.1673H27.1323H26.7573H26.5823C26.2413 7.61713 25.9627 7.34036 25.9609 6.99931C25.9609 6.98502 25.9609 6.96895 25.9609 6.95467C25.9627 3.53882 28.734 0.767578 32.1516 0.767578ZM36.3174 5.55119C35.7317 3.81202 34.0872 2.56032 32.1516 2.56032C30.216 2.56032 28.5715 3.81202 27.9858 5.55119H36.3174Z" fill="#1A1A1A"/>
<path fill-rule="evenodd" clip-rule="evenodd" d="M37.1152 10.6545C35.9867 12.1669 34.1833 13.1472 32.1513 13.1472C30.1192 13.1472 28.3158 12.1669 27.1873 10.6545C27.0766 10.5063 27.0391 10.3366 27.0766 10.1563C27.1141 9.97594 27.2159 9.83488 27.3748 9.74381L27.8533 9.46704C28.1247 9.30991 28.4676 9.37776 28.6586 9.62775C29.4621 10.6759 30.7263 11.3526 32.1513 11.3526C33.5744 11.3526 34.8404 10.6759 35.6439 9.62775C35.8349 9.37776 36.176 9.30991 36.4492 9.46704L36.9277 9.74381C37.0866 9.83666 37.1884 9.97594 37.2259 10.1563C37.2634 10.3366 37.2259 10.5063 37.1152 10.6545Z" fill="#1A1A1A"/>
<path fill-rule="evenodd" clip-rule="evenodd" d="M47.6789 0.767578C51.0966 0.767578 53.8678 3.53882 53.8678 6.95646C53.8678 6.97074 53.8678 6.98681 53.8678 7.0011C53.866 7.30108 53.65 7.55106 53.3643 7.60641V7.61713H53.2446H52.6947H42.6596H42.2847H42.1097C41.7686 7.61713 41.4901 7.34036 41.4883 6.99931C41.4883 6.98502 41.4883 6.96895 41.4883 6.95467C41.4901 3.53882 44.2613 0.767578 47.6789 0.767578ZM51.8447 5.55119C51.2591 3.81202 49.6145 2.56032 47.6789 2.56032C45.7434 2.56032 44.0988 3.81202 43.5131 5.55119H51.8447Z" fill="#1A1A1A"/>
<path fill-rule="evenodd" clip-rule="evenodd" d="M52.6426 10.6545C51.5141 12.1669 49.7106 13.1472 47.6786 13.1472C45.6466 13.1472 43.8431 12.1669 42.7146 10.6545C42.6039 10.5063 42.5664 10.3366 42.6039 10.1563C42.6414 9.97594 42.7432 9.83488 42.9021 9.74381L43.3807 9.46704C43.6521 9.30991 43.9949 9.37776 44.186 9.62775C44.9895 10.6759 46.2537 11.3526 47.6786 11.3526C49.1017 11.3526 50.3677 10.6759 51.1712 9.62775C51.3623 9.37776 51.7033 9.30991 51.9765 9.46704L52.4551 9.74381C52.614 9.83666 52.7158 9.97594 52.7533 10.1563C52.7908 10.3366 52.7533 10.5063 52.6426 10.6545Z" fill="#1A1A1A"/>
</svg>
