<svg width="57" height="13" viewBox="0 0 57 13" fill="none" xmlns="http://www.w3.org/2000/svg">
<g clip-path="url(#clip0_187_96)">
<path fill-rule="evenodd" clip-rule="evenodd" d="M36.9076 7.05845C36.9408 7.27845 36.9574 7.44768 37.0071 7.61691C37.3721 9.19075 38.583 10.24 40.1588 10.3754C41.5522 10.4938 42.6469 9.95229 43.4597 8.7846C43.8578 8.22614 44.5048 8.1246 45.019 8.58152C45.3176 8.83537 45.3507 9.17383 45.1185 9.49537C44.9858 9.6646 44.8697 9.83383 44.737 10.02C44.2062 10.7646 43.5095 11.2723 42.6469 11.5769C41.2536 12.0677 39.8602 12.1354 38.4834 11.6108C36.6256 10.9169 35.5308 9.52922 35.2157 7.54922C35.0332 6.33076 35.1493 5.11229 35.6967 4.01229C36.4929 2.43845 37.737 1.47383 39.4621 1.18614C40.6067 0.999987 41.7346 1.11845 42.7962 1.64306C44.3057 2.37076 45.218 3.60614 45.5664 5.24768C45.6659 5.7046 45.6991 6.16152 45.7323 6.61845C45.7654 6.90614 45.6327 7.0246 45.3507 7.04152C45.218 7.04152 45.1019 7.04152 44.9692 7.04152C42.3981 7.04152 39.827 7.04152 37.2725 7.04152C37.1564 7.05845 37.0735 7.05845 36.9076 7.05845ZM43.9242 5.33229C43.7085 3.85999 41.9668 2.57383 40.3578 2.67537C38.6825 2.77691 37.0237 4.07999 36.9574 5.33229C39.263 5.33229 41.6019 5.33229 43.9242 5.33229Z" fill="#9B9EA0"/>
<path fill-rule="evenodd" clip-rule="evenodd" d="M23.737 7.00757C23.7536 7.15987 23.7702 7.26141 23.7867 7.37987C24.1019 9.12295 25.4953 10.3245 27.2204 10.3583C28.5308 10.3753 29.5427 9.83372 30.3057 8.75064C30.7038 8.17526 31.4171 8.10757 31.9147 8.61526C32.1469 8.86911 32.1967 9.17372 31.9645 9.47834C31.8649 9.63064 31.7654 9.76603 31.6493 9.88449C31.0853 10.7306 30.3057 11.2722 29.3602 11.5937C27.9668 12.0676 26.5735 12.1014 25.2299 11.5599C23.3057 10.7983 22.2275 9.29218 21.9953 7.19372C21.8792 6.17834 21.9787 5.1968 22.3934 4.26603C23.2062 2.50603 24.5166 1.42295 26.4242 1.1691C27.436 1.03372 28.4479 1.11833 29.3768 1.50756C31.0687 2.21833 32.0474 3.55526 32.4289 5.36603C32.4953 5.77218 32.545 6.21218 32.5616 6.61834C32.5782 6.9568 32.5119 7.02449 32.1635 7.02449C31.5664 7.02449 30.936 7.02449 30.3223 7.02449C28.2654 7.02449 26.2085 7.02449 24.1848 7.02449C24.0356 7.00757 23.9029 7.00757 23.737 7.00757ZM30.7867 5.28141C30.5711 3.82603 28.8792 2.59064 27.2204 2.62449C25.6114 2.65833 23.936 3.97833 23.8033 5.28141C26.1256 5.28141 28.4313 5.28141 30.7867 5.28141Z" fill="#9B9EA0"/>
<path fill-rule="evenodd" clip-rule="evenodd" d="M52.5995 7.78605C52.7322 7.90451 52.7986 7.97221 52.8815 8.0399C53.7773 8.81836 54.673 9.59682 55.5522 10.3753C55.6019 10.4261 55.6849 10.4937 55.7346 10.5445C56.0664 10.883 56.0995 11.3737 55.7844 11.7122C55.4858 12.0507 55.0214 12.1014 54.673 11.8137C54.0427 11.2891 53.4455 10.7476 52.8318 10.223C51.9526 9.46144 51.0901 8.6999 50.2109 7.93836C50.1446 7.87067 50.045 7.80297 49.9123 7.70144C49.9123 7.88759 49.8957 8.00605 49.8957 8.12451C49.8957 10.2737 49.8957 8.66605 49.8957 10.8153C49.8957 10.9168 49.8957 11.0184 49.8957 11.1199C49.8626 11.5937 49.5142 11.9322 49.0498 11.8984C48.6019 11.8814 48.3033 11.543 48.2867 11.0691C48.2867 10.9676 48.2867 10.8661 48.2867 10.7645C48.2867 6.51682 48.2867 6.02605 48.2867 1.77836C48.2867 1.64297 48.2867 1.52451 48.2867 1.38913C48.2867 1.08451 48.3199 1.03374 48.6019 1.03374C48.9834 1.01682 49.3649 1.01682 49.7465 1.01682C50.6588 1.01682 51.6043 1.05067 52.5166 0.999898C54.0593 0.932205 55.7844 2.20144 55.9503 4.04605C56.0995 5.70451 54.9882 7.27836 53.3294 7.61682C53.1138 7.66759 52.8815 7.73528 52.5995 7.78605ZM49.7962 6.48298C49.8958 6.4999 49.9621 6.4999 50.0119 6.4999C50.7749 6.4999 51.5545 6.4999 52.3176 6.4999C52.5332 6.4999 52.7654 6.48298 52.9811 6.39836C53.6943 6.17836 54.2583 5.73836 54.4408 4.9599C54.7559 3.62297 53.7773 2.40451 52.4337 2.40451C51.6375 2.40451 50.8578 2.40451 50.045 2.40451C49.9455 2.40451 49.8626 2.42144 49.763 2.42144C49.7962 3.77528 49.7962 5.11221 49.7962 6.48298Z" fill="#9B9EA0"/>
<path fill-rule="evenodd" clip-rule="evenodd" d="M17.7654 7.0246C16.2393 7.0246 14.763 7.0246 13.2536 7.0246C13.2536 7.15998 13.237 7.27845 13.237 7.39691C13.237 8.58152 13.237 9.74921 13.237 10.9338C13.237 11.0861 13.237 11.2384 13.2038 11.3569C13.0877 11.7123 12.7228 11.9323 12.3744 11.9154C11.9929 11.8815 11.6777 11.5769 11.628 11.1877C11.6114 11.0861 11.628 11.0015 11.628 10.9C11.628 6.68614 11.6114 6.17845 11.6114 1.98152C11.6114 1.81229 11.628 1.64306 11.6777 1.49075C11.8104 1.13537 12.1754 0.932293 12.5569 0.983062C12.9052 1.03383 13.2038 1.33845 13.237 1.71075C13.2536 1.82922 13.237 1.93075 13.237 2.04922C13.237 4.21537 13.2536 2.67537 13.2536 4.84152C13.2536 4.97691 13.2702 5.09537 13.2702 5.21383C13.5521 5.28152 17.4668 5.28152 17.7654 5.21383C17.7654 5.11229 17.782 5.01075 17.782 4.89229C17.782 3.9446 17.782 2.97998 17.782 2.03229C17.782 1.93075 17.782 1.84614 17.782 1.7446C17.8152 1.32152 18.1303 0.999985 18.545 0.983062C18.9597 0.966139 19.3412 1.28768 19.391 1.71075C19.4076 1.81229 19.391 1.89691 19.391 1.99845C19.391 4.95998 19.391 7.9046 19.391 10.8661C19.391 10.9677 19.391 11.0523 19.391 11.1538C19.3412 11.5769 18.9763 11.9154 18.5616 11.8984C18.1469 11.8815 17.8152 11.5431 17.7654 11.12C17.7654 11.0184 17.7654 10.9338 17.7654 10.8323C17.7654 9.69845 17.7654 8.53075 17.7654 7.39691C17.7654 7.29537 17.7654 7.17691 17.7654 7.0246Z" fill="#9B9EA0"/>
<path fill-rule="evenodd" clip-rule="evenodd" d="M4.56162 11.983C3.48342 11.9661 2.47157 11.7292 1.54266 11.1538C1.14456 10.9169 0.779631 10.6123 0.481052 10.2569C0.331763 10.0707 0.149299 9.88459 0.0829481 9.64766C-0.016578 9.34305 -0.0331657 9.00459 0.248825 8.73382C0.563991 8.4292 0.99527 8.31074 1.42655 8.59843C1.84124 8.90305 2.04029 9.29228 2.38864 9.64766C2.88627 10.1554 3.53319 10.4261 4.22987 10.5107C4.87679 10.5784 5.50712 10.5615 6.13745 10.3415C6.38627 10.24 6.65167 10.1215 6.86731 9.95228C7.26541 9.49536 7.38153 8.85228 6.90048 8.41228C6.66826 8.2092 6.36968 8.0569 6.0711 7.92151C5.34124 7.59997 4.57821 7.37997 3.81518 7.1769C3.18484 7.02459 2.58769 6.82151 1.95736 6.63536C1.72513 6.56766 1.4929 6.43228 1.27726 6.31382C0.696692 5.99228 0.364939 5.48459 0.265413 4.84151C0.0829481 3.50459 0.563991 2.30305 1.70854 1.71074C3.50001 0.813819 5.35783 0.898434 7.1493 1.93074C7.48105 2.1169 7.79622 2.40459 8.07821 2.65843C8.29385 2.84459 8.45973 3.11536 8.54266 3.40305C8.6256 3.75843 8.45973 4.13074 8.02845 4.23228C7.66352 4.3169 7.33176 4.19843 7.06636 3.91074C7.0166 3.85997 6.96683 3.79228 6.93366 3.74151C6.51897 3.09843 5.90522 2.74305 5.17536 2.60766C4.44551 2.47228 3.71565 2.4892 3.01897 2.7769C2.77015 2.87843 2.50475 3.01382 2.3057 3.19997C2.00712 3.60613 1.891 4.14767 2.28911 4.65536C2.60427 4.95997 2.9692 5.1292 3.36731 5.21382C4.24646 5.43382 5.14219 5.67074 6.02134 5.89074C6.58532 6.04305 7.13271 6.2292 7.64693 6.53382C8.31044 6.8892 8.79148 7.41382 8.95736 8.17536C9.15641 9.10613 8.95736 9.98613 8.24409 10.663C7.43129 11.4077 6.50238 11.8138 5.42418 11.9323C5.1256 11.9661 4.82702 11.9661 4.56162 11.983Z" fill="#9B9EA0"/>
</g>
<defs>
<clipPath id="clip0_187_96">
<rect width="57" height="13" fill="white"/>
</clipPath>
</defs>
</svg>
