<svg width="1728" height="1516" viewBox="0 0 1728 1516" fill="none" xmlns="http://www.w3.org/2000/svg">
<path d="M137 1H1537.25C1642.05 1 1727 85.954 1727 190.75V190.75C1727 295.546 1642.05 380.5 1537.25 380.5H190C85.6182 380.5 1 465.118 1 569.5V569.5C1 673.882 85.6182 758.5 190 758.5H1538C1642.38 758.5 1727 843.118 1727 947.5V947.5C1727 1051.88 1642.38 1136.5 1538 1136.5H190C85.6182 1136.5 1 1221.12 1 1325.5V1325.5C1 1429.88 85.6182 1514.5 190 1514.5H1598" stroke="#1A1A1A" stroke-opacity="0.64" stroke-width="1.5" stroke-dasharray="8 8"/>
</svg>
