<svg width="76" height="76" viewBox="0 0 76 76" fill="none" xmlns="http://www.w3.org/2000/svg">
<g clip-path="url(#clip0_2_124)">
<g clip-path="url(#clip1_2_124)">
<path fill-rule="evenodd" clip-rule="evenodd" d="M38.0635 0H75.5333V37.293V37.4698C75.5333 57.6186 59.4496 74.2326 39.4775 74.9395C51.8496 71.2279 60.6868 59.7395 60.6868 46.307V46.1302V16.0837H30.6403C15.617 16.0837 3.06817 27.2186 0.770494 41.7116C0.59375 40.4744 0.59375 39.0605 0.59375 37.4698C0.59375 16.9674 17.5612 0 38.0635 0Z" fill="url(#paint0_linear_2_124)"/>
<path fill-rule="evenodd" clip-rule="evenodd" d="M22.6868 30.9302H44.7798V53.0233C44.7798 65.2186 34.8821 75.1163 22.6868 75.1163H0.59375V53.0233C0.59375 40.8279 10.4914 30.9302 22.6868 30.9302Z" fill="url(#paint1_linear_2_124)"/>
</g>
</g>
<defs>
<linearGradient id="paint0_linear_2_124" x1="0.59375" y1="37.5394" x2="75.7083" y2="37.5394" gradientUnits="userSpaceOnUse">
<stop stop-color="#2E5E6D"/>
<stop offset="1" stop-color="#214250"/>
</linearGradient>
<linearGradient id="paint1_linear_2_124" x1="0.59375" y1="53.0254" x2="44.701" y2="53.0254" gradientUnits="userSpaceOnUse">
<stop stop-color="#518311"/>
<stop offset="1" stop-color="#79BF1B"/>
</linearGradient>
<clipPath id="clip0_2_124">
<rect width="76" height="76" fill="white"/>
</clipPath>
<clipPath id="clip1_2_124">
<rect width="76" height="76" fill="white"/>
</clipPath>
</defs>
</svg>
