<svg width="57" height="57" viewBox="0 0 57 57" fill="none" xmlns="http://www.w3.org/2000/svg">
<g clip-path="url(#clip0_2_130)">
<g clip-path="url(#clip1_2_130)">
<path fill-rule="evenodd" clip-rule="evenodd" d="M28.5476 0H56.65V27.9698V28.1023C56.65 43.214 44.5872 55.6744 29.6081 56.2047C38.8872 53.4209 45.5151 44.8047 45.5151 34.7302V34.5977V12.0628H22.9802C11.7128 12.0628 2.30113 20.414 0.577871 31.2837C0.445312 30.3558 0.445312 29.2954 0.445312 28.1023C0.445312 12.7256 13.1709 0 28.5476 0Z" fill="url(#paint0_linear_2_130)"/>
<path fill-rule="evenodd" clip-rule="evenodd" d="M17.0151 23.1977H33.5848V39.7675C33.5848 48.914 26.1616 56.3372 17.0151 56.3372H0.445312V39.7675C0.445312 30.6209 7.86857 23.1977 17.0151 23.1977Z" fill="url(#paint1_linear_2_130)"/>
</g>
</g>
<defs>
<linearGradient id="paint0_linear_2_130" x1="0.445312" y1="28.1546" x2="56.7812" y2="28.1546" gradientUnits="userSpaceOnUse">
<stop stop-color="#2E5E6D"/>
<stop offset="1" stop-color="#214250"/>
</linearGradient>
<linearGradient id="paint1_linear_2_130" x1="0.445312" y1="39.7691" x2="33.5257" y2="39.7691" gradientUnits="userSpaceOnUse">
<stop stop-color="#518311"/>
<stop offset="1" stop-color="#79BF1B"/>
</linearGradient>
<clipPath id="clip0_2_130">
<rect width="57" height="57" fill="white"/>
</clipPath>
<clipPath id="clip1_2_130">
<rect width="57" height="57" fill="white"/>
</clipPath>
</defs>
</svg>
