<svg width="60" height="60" viewBox="0 0 60 60" fill="none" xmlns="http://www.w3.org/2000/svg">
<g clip-path="url(#clip0_2_128)">
<g clip-path="url(#clip1_2_128)">
<path fill-rule="evenodd" clip-rule="evenodd" d="M30.0501 0H59.6315V29.4419V29.5814C59.6315 45.4884 46.9339 58.6047 31.1664 59.1628C40.9339 56.2326 47.9106 47.1628 47.9106 36.5581V36.4186V12.6977H24.1897C12.3292 12.6977 2.42224 21.4884 0.608285 32.9302C0.46875 31.9535 0.46875 30.8372 0.46875 29.5814C0.46875 13.3953 13.8641 0 30.0501 0Z" fill="url(#paint0_linear_2_128)"/>
<path fill-rule="evenodd" clip-rule="evenodd" d="M17.9106 24.4186H35.3525V41.8604C35.3525 51.4883 27.5385 59.3023 17.9106 59.3023H0.46875V41.8604C0.46875 32.2325 8.2827 24.4186 17.9106 24.4186Z" fill="url(#paint1_linear_2_128)"/>
</g>
</g>
<defs>
<linearGradient id="paint0_linear_2_128" x1="0.46875" y1="29.6364" x2="59.7697" y2="29.6364" gradientUnits="userSpaceOnUse">
<stop stop-color="#2E5E6D"/>
<stop offset="1" stop-color="#214250"/>
</linearGradient>
<linearGradient id="paint1_linear_2_128" x1="0.46875" y1="41.8621" x2="35.2902" y2="41.8621" gradientUnits="userSpaceOnUse">
<stop stop-color="#518311"/>
<stop offset="1" stop-color="#79BF1B"/>
</linearGradient>
<clipPath id="clip0_2_128">
<rect width="60" height="60" fill="white"/>
</clipPath>
<clipPath id="clip1_2_128">
<rect width="60" height="60" fill="white"/>
</clipPath>
</defs>
</svg>
