<svg width="120" height="120" viewBox="0 0 120 120" fill="none" xmlns="http://www.w3.org/2000/svg">
<g clip-path="url(#clip0_2_120)">
<path fill-rule="evenodd" clip-rule="evenodd" d="M60.1003 0H119.263V58.8837V59.1628C119.263 90.9767 93.8677 117.209 62.3328 118.326C81.8677 112.465 95.8212 94.3256 95.8212 73.1163V72.8372V25.3953H48.3794C24.6584 25.3953 4.84448 42.9767 1.21657 65.8605C0.9375 63.907 0.9375 61.6744 0.9375 59.1628C0.9375 26.7907 27.7282 0 60.1003 0Z" fill="url(#paint0_linear_2_120)"/>
<path fill-rule="evenodd" clip-rule="evenodd" d="M35.8212 48.8372H70.7049V83.7209C70.7049 102.977 55.077 118.605 35.8212 118.605H0.9375V83.7209C0.9375 64.4651 16.5654 48.8372 35.8212 48.8372Z" fill="url(#paint1_linear_2_120)"/>
</g>
<defs>
<linearGradient id="paint0_linear_2_120" x1="0.9375" y1="59.2727" x2="119.539" y2="59.2727" gradientUnits="userSpaceOnUse">
<stop stop-color="#2E5E6D"/>
<stop offset="1" stop-color="#214250"/>
</linearGradient>
<linearGradient id="paint1_linear_2_120" x1="0.9375" y1="83.7243" x2="70.5805" y2="83.7243" gradientUnits="userSpaceOnUse">
<stop stop-color="#518311"/>
<stop offset="1" stop-color="#79BF1B"/>
</linearGradient>
<clipPath id="clip0_2_120">
<rect width="120" height="120" fill="white"/>
</clipPath>
</defs>
</svg>
