<svg width="196" height="196" viewBox="0 0 196 196" fill="none" xmlns="http://www.w3.org/2000/svg">
<g clip-path="url(#clip0_2_132)">
<path fill-rule="evenodd" clip-rule="evenodd" d="M98.1638 0H194.796V96.1767V96.6326C194.796 148.595 153.317 191.442 101.81 193.265C133.717 183.693 156.508 154.065 156.508 119.423V118.967V41.4791H79.0196C40.2754 41.4791 7.91264 70.1954 1.98706 107.572C1.53125 104.381 1.53125 100.735 1.53125 96.6326C1.53125 43.7581 45.2894 0 98.1638 0Z" fill="url(#paint0_linear_2_132)"/>
<path fill-rule="evenodd" clip-rule="evenodd" d="M58.508 79.7675H115.485V136.744C115.485 168.195 89.9592 193.721 58.508 193.721H1.53125V136.744C1.53125 105.293 27.0568 79.7675 58.508 79.7675Z" fill="url(#paint1_linear_2_132)"/>
</g>
<defs>
<linearGradient id="paint0_linear_2_132" x1="1.53125" y1="96.8122" x2="195.248" y2="96.8122" gradientUnits="userSpaceOnUse">
<stop stop-color="#2E5E6D"/>
<stop offset="1" stop-color="#214250"/>
</linearGradient>
<linearGradient id="paint1_linear_2_132" x1="1.53125" y1="136.75" x2="115.281" y2="136.75" gradientUnits="userSpaceOnUse">
<stop stop-color="#518311"/>
<stop offset="1" stop-color="#79BF1B"/>
</linearGradient>
<clipPath id="clip0_2_132">
<rect width="196" height="196" fill="white"/>
</clipPath>
</defs>
</svg>
