<svg width="128" height="128" viewBox="0 0 128 128" fill="none" xmlns="http://www.w3.org/2000/svg">
<g clip-path="url(#clip0_2_134)">
<path fill-rule="evenodd" clip-rule="evenodd" d="M64.107 0H127.214V62.8093V63.107C127.214 97.0419 100.126 125.023 66.4884 126.214C87.3256 119.963 102.209 100.614 102.209 77.9907V77.693V27.0884H51.6047C26.3023 27.0884 5.16744 45.8419 1.29767 70.2512C1 68.1674 1 65.786 1 63.107C1 28.5767 29.5767 0 64.107 0Z" fill="url(#paint0_linear_2_134)"/>
<path fill-rule="evenodd" clip-rule="evenodd" d="M38.2093 52.093H75.4186V89.3023C75.4186 109.842 58.7488 126.512 38.2093 126.512H1V89.3023C1 68.7628 17.6698 52.093 38.2093 52.093Z" fill="url(#paint1_linear_2_134)"/>
</g>
<defs>
<linearGradient id="paint0_linear_2_134" x1="1" y1="63.2243" x2="127.509" y2="63.2243" gradientUnits="userSpaceOnUse">
<stop stop-color="#2E5E6D"/>
<stop offset="1" stop-color="#214250"/>
</linearGradient>
<linearGradient id="paint1_linear_2_134" x1="1" y1="89.3059" x2="75.2858" y2="89.3059" gradientUnits="userSpaceOnUse">
<stop stop-color="#518311"/>
<stop offset="1" stop-color="#79BF1B"/>
</linearGradient>
<clipPath id="clip0_2_134">
<rect width="128" height="128" fill="white"/>
</clipPath>
</defs>
</svg>
