<svg width="16" height="16" viewBox="0 0 16 16" fill="none" xmlns="http://www.w3.org/2000/svg">
<g clip-path="url(#clip0_2_140)">
<g clip-path="url(#clip1_2_140)">
<path fill-rule="evenodd" clip-rule="evenodd" d="M8.01337 0H15.9017V7.85116V7.88837C15.9017 12.1302 12.5157 15.6279 8.31105 15.7767C10.9157 14.9953 12.7762 12.5767 12.7762 9.74884V9.71163V3.38605H6.45058C3.28779 3.38605 0.64593 5.73023 0.162209 8.7814C0.125 8.52093 0.125 8.22326 0.125 7.88837C0.125 3.57209 3.69709 0 8.01337 0Z" fill="url(#paint0_linear_2_140)"/>
<path fill-rule="evenodd" clip-rule="evenodd" d="M4.77616 6.5116H9.42733V11.1628C9.42733 13.7302 7.3436 15.8139 4.77616 15.8139H0.125V11.1628C0.125 8.59532 2.20872 6.5116 4.77616 6.5116Z" fill="url(#paint1_linear_2_140)"/>
</g>
</g>
<defs>
<linearGradient id="paint0_linear_2_140" x1="0.125" y1="7.90303" x2="15.9386" y2="7.90303" gradientUnits="userSpaceOnUse">
<stop stop-color="#2E5E6D"/>
<stop offset="1" stop-color="#214250"/>
</linearGradient>
<linearGradient id="paint1_linear_2_140" x1="0.125" y1="11.1632" x2="9.41073" y2="11.1632" gradientUnits="userSpaceOnUse">
<stop stop-color="#518311"/>
<stop offset="1" stop-color="#79BF1B"/>
</linearGradient>
<clipPath id="clip0_2_140">
<rect width="16" height="16" fill="white"/>
</clipPath>
<clipPath id="clip1_2_140">
<rect width="16" height="16" fill="white"/>
</clipPath>
</defs>
</svg>
