<svg width="64" height="64" viewBox="0 0 64 64" fill="none" xmlns="http://www.w3.org/2000/svg">
<g clip-path="url(#clip0_1110_448)">
<g clip-path="url(#clip1_1110_448)">
<path fill-rule="evenodd" clip-rule="evenodd" d="M32.0535 0H63.607V31.4047V31.5535C63.607 48.5209 50.0628 62.5116 33.2442 63.107C43.6628 59.9814 51.1047 50.307 51.1047 38.9953V38.8465V13.5442H25.8023C13.1512 13.5442 2.58372 22.9209 0.648837 35.1256C0.5 34.0837 0.5 32.893 0.5 31.5535C0.5 14.2884 14.7884 0 32.0535 0Z" fill="url(#paint0_linear_1110_448)"/>
<path fill-rule="evenodd" clip-rule="evenodd" d="M19.1047 26.0465H37.7093V44.6512C37.7093 54.9209 29.3744 63.2558 19.1047 63.2558H0.5V44.6512C0.5 34.3814 8.83488 26.0465 19.1047 26.0465Z" fill="url(#paint1_linear_1110_448)"/>
</g>
</g>
<defs>
<linearGradient id="paint0_linear_1110_448" x1="0.5" y1="31.6121" x2="63.7543" y2="31.6121" gradientUnits="userSpaceOnUse">
<stop stop-color="#2E5E6D"/>
<stop offset="1" stop-color="#214250"/>
</linearGradient>
<linearGradient id="paint1_linear_1110_448" x1="0.5" y1="44.6529" x2="37.6429" y2="44.6529" gradientUnits="userSpaceOnUse">
<stop stop-color="#518311"/>
<stop offset="1" stop-color="#79BF1B"/>
</linearGradient>
<clipPath id="clip0_1110_448">
<rect width="64" height="64" fill="white"/>
</clipPath>
<clipPath id="clip1_1110_448">
<rect width="64" height="64" fill="white"/>
</clipPath>
</defs>
</svg>
