<svg width="150" height="150" viewBox="0 0 150 150" fill="none" xmlns="http://www.w3.org/2000/svg">
<g clip-path="url(#clip0_2_106)">
<path fill-rule="evenodd" clip-rule="evenodd" d="M75.1254 0H149.079V73.6047V73.9535C149.079 113.721 117.335 146.512 77.9161 147.907C102.335 140.581 119.777 117.907 119.777 91.3953V91.0465V31.7442H60.4742C30.823 31.7442 6.0556 53.7209 1.52071 82.3256C1.17188 79.8837 1.17188 77.093 1.17188 73.9535C1.17188 33.4884 34.6602 0 75.1254 0Z" fill="url(#paint0_linear_2_106)"/>
<path fill-rule="evenodd" clip-rule="evenodd" d="M44.7765 61.0465H88.3812V104.651C88.3812 128.721 68.8463 148.256 44.7765 148.256H1.17188V104.651C1.17188 80.5814 20.7068 61.0465 44.7765 61.0465Z" fill="url(#paint1_linear_2_106)"/>
</g>
<defs>
<linearGradient id="paint0_linear_2_106" x1="1.17188" y1="74.0909" x2="149.424" y2="74.0909" gradientUnits="userSpaceOnUse">
<stop stop-color="#2E5E6D"/>
<stop offset="1" stop-color="#214250"/>
</linearGradient>
<linearGradient id="paint1_linear_2_106" x1="1.17188" y1="104.655" x2="88.2256" y2="104.655" gradientUnits="userSpaceOnUse">
<stop stop-color="#518311"/>
<stop offset="1" stop-color="#79BF1B"/>
</linearGradient>
<clipPath id="clip0_2_106">
<rect width="150" height="150" fill="white"/>
</clipPath>
</defs>
</svg>
